<svg width="335" height="300" viewBox="0 0 335 300" fill="none" xmlns="http://www.w3.org/2000/svg">
<rect width="335" height="300" rx="24" fill="url(#paint0_linear_1488_40334)"/>
<rect x="20" y="46.5" width="130" height="34" rx="17" fill="#50A6B0"/>
<path d="M50.2734 63.5068H48.3105V70.2744H46.6846V57.0615H48.3105V62.1738H50.2734V63.5068ZM38.4082 58.3506H40.0195V65.6602C42.0215 65.626 43.9014 65.4258 45.6592 65.0596L45.835 66.4365C44.7949 66.6465 43.7573 66.793 42.7222 66.876C41.687 66.959 40.6201 67.0029 39.5215 67.0078H38.4082V58.3506ZM57.252 64.459H50.9824V58.2041H57.252V64.459ZM52.4912 65.792H54.1172V68.7217H61.5V70.04H52.4912V65.792ZM55.6553 63.1699V59.5078H52.5791V63.1699H55.6553ZM59.3467 57.0615H60.9727V60.9434H62.8184V62.3057H60.9727V66.7295H59.3467V57.0615ZM67.4092 57.9844C68.1025 57.9844 68.7251 58.1211 69.2769 58.3945C69.8286 58.6631 70.2607 59.0415 70.5732 59.5298C70.8906 60.0132 71.0518 60.5625 71.0566 61.1777C71.0518 61.7979 70.8906 62.3521 70.5732 62.8403C70.2607 63.3237 69.8286 63.7021 69.2769 63.9756C68.7251 64.249 68.1025 64.3857 67.4092 64.3857C66.7207 64.3857 66.0981 64.249 65.5415 63.9756C64.9897 63.7021 64.5576 63.3213 64.2451 62.833C63.9326 62.3447 63.7764 61.793 63.7764 61.1777C63.7764 60.5625 63.9326 60.0132 64.2451 59.5298C64.5625 59.0415 64.9971 58.6631 65.5488 58.3945C66.1006 58.1211 66.7207 57.9844 67.4092 57.9844ZM63.1758 66.2168C64.7969 66.2168 66.3105 66.1899 67.7168 66.1362C69.123 66.0776 70.4609 65.958 71.7305 65.7773L71.8623 66.9639C70.5537 67.2129 69.2183 67.374 67.856 67.4473C66.4985 67.5156 65.0068 67.5498 63.3809 67.5498L63.1758 66.2168ZM65.3877 61.1777C65.3877 61.5391 65.4731 61.8564 65.644 62.1299C65.8198 62.3984 66.0615 62.606 66.3691 62.7524C66.6768 62.894 67.0234 62.9648 67.4092 62.9648C67.7998 62.9648 68.1489 62.894 68.4565 62.7524C68.769 62.606 69.0132 62.3984 69.189 62.1299C69.3696 61.8564 69.46 61.5391 69.46 61.1777C69.46 60.8164 69.3696 60.5015 69.189 60.2329C69.0132 59.9644 68.769 59.7568 68.4565 59.6104C68.1489 59.4639 67.7998 59.3906 67.4092 59.3906C67.0234 59.3906 66.6768 59.4639 66.3691 59.6104C66.0615 59.7568 65.8198 59.9668 65.644 60.2402C65.4731 60.5088 65.3877 60.8213 65.3877 61.1777ZM72.5215 57.0615H74.1475V70.3184H72.5215V57.0615ZM85.6143 63.6973H79.3447V57.9404H85.6143V63.6973ZM80.1211 69C80.8828 68.8975 81.5542 68.7241 82.1353 68.48C82.7212 68.231 83.1875 67.9355 83.5342 67.5938C83.8857 67.252 84.1055 66.8857 84.1934 66.4951H80.6631V65.2061H89.5254V66.4951H86.0098C86.0977 66.876 86.3174 67.2397 86.6689 67.5864C87.0254 67.9282 87.4941 68.2261 88.0752 68.48C88.6611 68.7339 89.3301 68.9121 90.082 69.0146L89.4961 70.2598C88.4707 70.1133 87.5771 69.8325 86.8154 69.4175C86.0537 69.0024 85.48 68.4922 85.0942 67.8867C84.7085 68.4922 84.1372 69 83.3804 69.4102C82.6235 69.8203 81.7373 70.0938 80.7217 70.2305L80.1211 69ZM84.0176 62.3936V59.2441H80.9414V62.3936H84.0176ZM87.709 57.0615H89.335V60.0352H91.1807V61.3828H89.335V64.5322H87.709V57.0615ZM103.55 64.7812H98.3057V65.9385H102.085V70.1426H92.9004V65.9385H96.6943V64.7812H91.4795V63.4922H103.55V64.7812ZM92.0508 61.6904C92.9541 61.627 93.7329 61.4951 94.3872 61.2949C95.0464 61.0898 95.5591 60.8359 95.9253 60.5332C96.2915 60.2256 96.5063 59.8887 96.5698 59.5225H92.666V58.2334H96.6943V57.0469H98.3057V58.2334H102.363V59.5225H98.4302C98.4937 59.8887 98.7085 60.2256 99.0747 60.5332C99.4409 60.8359 99.9536 61.0898 100.613 61.2949C101.272 61.4951 102.051 61.627 102.949 61.6904L102.48 62.8916C101.284 62.7988 100.259 62.5815 99.4043 62.2397C98.5498 61.8931 97.915 61.4414 97.5 60.8848C97.085 61.4414 96.4502 61.8931 95.5957 62.2397C94.7412 62.5815 93.7207 62.7988 92.5342 62.8916L92.0508 61.6904ZM100.503 68.8242V67.2422H94.5117V68.8242H100.503ZM118.342 63.8438H116.716V60.4893H114.079V59.1855H116.716V57.0615H118.342V63.8438ZM107.18 62.6133C107.873 62.4033 108.461 62.0957 108.945 61.6904C109.433 61.2803 109.799 60.8066 110.043 60.2695C110.292 59.7275 110.417 59.1562 110.417 58.5557V57.501H112.058V58.5557C112.053 59.1074 112.17 59.6348 112.409 60.1377C112.648 60.6406 113.002 61.0874 113.471 61.478C113.94 61.8638 114.509 62.1592 115.178 62.3643L114.313 63.624C113.605 63.3896 112.993 63.0479 112.475 62.5986C111.958 62.1494 111.55 61.6196 111.252 61.0093C110.959 61.6929 110.539 62.2861 109.992 62.7891C109.45 63.2871 108.796 63.6631 108.029 63.917L107.18 62.6133ZM109.626 64.415H118.342V67.8428H111.237V68.8535H118.767V70.1426H109.641V66.627H116.73V65.6895H109.626V64.415ZM131.268 70.3037H129.715V57.0615H131.268V70.3037ZM119.71 66.3486C121.053 65.5527 122.063 64.6348 122.742 63.5947C123.426 62.5547 123.831 61.3535 123.958 59.9912H120.413V58.6729H125.569C125.569 59.3564 125.523 60.0059 125.43 60.6211H126.976V57.3838H128.528V69.6738H126.976V65.25H124.91V63.917H126.976V61.9541H125.152C124.825 63.0918 124.295 64.1245 123.562 65.0522C122.835 65.9751 121.868 66.793 120.662 67.5059L119.71 66.3486Z" fill="white"/>
<path d="M33.4258 98.7461V109.656H21.4766V98.7461H33.4258ZM22.9531 119.254C27.4238 118.707 29.8574 116.93 30.418 115.016H24.0195V112.254H40.7812V115.016H34.4102C34.9844 116.875 37.459 118.721 41.875 119.309L40.6445 121.961C36.6523 121.428 33.8359 119.842 32.4004 117.709C30.9785 119.842 28.1895 121.4 24.2109 121.906L22.9531 119.254ZM24.9219 106.895H29.9805V101.508H24.9219V106.895ZM36.9805 111.078V97.1328H40.4805V102.547H43.8438V105.391H40.4805V111.078H36.9805ZM66.9328 109.082V111.844H57.2805V113.758H64.2258V121.742H46.8625V113.758H53.8352V111.844H44.2375V109.082H66.9328ZM45.1945 105.582C50.5949 105.268 53.0832 103.709 53.5344 102H46.425V99.2656H53.8352V97.1328H57.2805V99.2656H64.7453V102H57.5676C58.0187 103.709 60.5617 105.268 65.9211 105.582L64.9094 108.152C60.302 107.838 57.1164 106.58 55.5578 104.625C53.9855 106.58 50.8 107.838 46.2062 108.152L45.1945 105.582ZM50.3078 118.953H60.8078V116.52H50.3078V118.953ZM81.6273 99.4297V102.191H67.7914V99.4297H73.1508V96.9141H76.6234V99.4297H81.6273ZM69.0219 107.688C68.9945 104.926 71.4145 103.025 74.8461 103.012C78.2641 103.025 80.725 104.926 80.7523 107.688C80.725 110.477 78.2641 112.322 74.8461 112.309C71.4145 112.322 68.9945 110.477 69.0219 107.688ZM71.6742 117.668C71.6605 114.906 74.9418 113.279 80.2602 113.293C85.5512 113.279 88.8324 114.906 88.8461 117.668C88.8324 120.375 85.5512 122.029 80.2602 122.016C74.9418 122.029 71.6605 120.375 71.6742 117.668ZM72.2758 107.688C72.2621 109.027 73.2738 109.738 74.8461 109.738C76.4047 109.738 77.4984 109.027 77.4984 107.688C77.4984 106.361 76.4047 105.623 74.8461 105.609C73.2738 105.623 72.2621 106.361 72.2758 107.688ZM75.3383 117.668C75.3383 118.803 77.0746 119.391 80.2602 119.391C83.3773 119.391 85.1 118.803 85.1 117.668C85.1 116.479 83.3773 115.945 80.2602 115.918C77.0746 115.945 75.3383 116.479 75.3383 117.668ZM81.8461 110.367V107.578H85.2367V105.391H81.9008V102.602H85.2367V97.1328H88.7094V112.992H85.2367V110.367H81.8461ZM112.209 97.1602V115.344H108.736V107.223H104.279V104.352H108.736V97.1602H112.209ZM91.5641 110.094C96.7184 108.48 100.054 105.5 100.697 101.836H92.8492V98.9922H104.498C104.498 105.664 100.259 110.6 92.9859 112.855L91.5641 110.094ZM95.8023 121.578V113.512H99.357V118.789H112.838V121.578H95.8023ZM134.477 97.1328V102.984H137.841V105.828H134.477V111.57H130.977V97.1328H134.477ZM114.571 109.301C120.054 107.852 123.184 105.008 123.731 101.562H115.747V98.7734H127.532C127.546 105.404 123.376 110.053 115.966 112.117L114.571 109.301ZM117.934 116.957C117.907 113.84 121.298 111.871 126.356 111.871C131.429 111.871 134.737 113.84 134.751 116.957C134.737 120.102 131.429 122.043 126.356 122.043C121.298 122.043 117.907 120.102 117.934 116.957ZM121.38 116.957C121.366 118.461 123.225 119.322 126.356 119.309C129.446 119.322 131.305 118.461 131.305 116.957C131.305 115.426 129.446 114.578 126.356 114.578C123.225 114.578 121.366 115.426 121.38 116.957ZM159.152 97.1328V122.016H155.625V97.1328H159.152ZM138.316 114.961C144.742 111.926 147.572 107.988 148.133 102.465H139.656V99.7305H151.688C151.674 107.277 149.035 113.553 140.148 117.75L138.316 114.961ZM181.913 103.367V106.156H164.605V97.5156H168.077V103.367H181.913ZM161.734 111.133V108.289H184.484V111.133H161.734ZM164.331 117.312C164.331 114.373 167.613 112.705 173.054 112.691C178.454 112.705 181.695 114.373 181.722 117.312C181.695 120.279 178.454 121.934 173.054 121.934C167.613 121.934 164.331 120.279 164.331 117.312ZM167.886 117.312C167.872 118.611 169.609 119.268 173.054 119.281C176.431 119.268 178.208 118.611 178.222 117.312C178.208 115.986 176.431 115.426 173.054 115.398C169.609 115.426 167.872 115.986 167.886 117.312ZM194.776 100.66C194.748 103.764 196.526 106.785 200.627 108.016L198.877 110.75C196.047 109.848 194.079 108.07 192.971 105.801C191.85 108.248 189.827 110.189 186.901 111.133L185.151 108.398C189.307 107.072 191.139 103.832 191.139 100.66V98.2812H194.776V100.66ZM188.952 115.836V113.047H206.069V122.016H202.569V115.836H188.952ZM202.569 111.98V97.1328H206.069V111.98H202.569ZM231.427 108.781V111.543H221.802V113.676H228.72V121.742H211.357V113.676H218.33V111.543H208.732V108.781H231.427ZM210.728 100.605V97.8164H229.404V100.605H226.15V104.406H229.24V107.195H210.892V104.406H213.955V100.605H210.728ZM214.802 118.953H225.302V116.383H214.802V118.953ZM217.455 104.406H222.65V100.605H217.455V104.406ZM259.504 97.1328V122.016H256.195V97.1328H259.504ZM237.465 114.742C241.129 112.486 242.496 108.029 242.496 103.805V102.465H238.422V99.6758H249.633V102.465H245.859V103.805C245.846 107.934 247.145 112.117 250.781 114.195L248.73 116.766C246.502 115.453 245.053 113.238 244.205 110.559C243.357 113.457 241.854 115.918 239.57 117.312L237.465 114.742ZM247.855 108.48V105.664H251.137V97.543H254.418V120.867H251.137V108.48H247.855ZM281.773 108.262V111.023H274.554V116.328H284.261V119.172H261.484V116.328H271.081V111.023H264.163V98.8828H281.581V101.672H267.663V108.262H281.773Z" fill="#FFFF68"/>
<path d="M27.082 137.035V139.523H37.0625V137.035H40.5352V147.207H33.8086V149.312H43.4336V152.102H20.7383V149.312H30.3086V147.207H23.6367V137.035H27.082ZM23.4727 160.578V153.523H26.9727V157.789H40.8633V160.578H23.4727ZM27.082 144.418H37.0625V142.203H27.082V144.418ZM57.5539 137.691C57.5539 138.553 57.4855 139.387 57.3352 140.18H61.7375V136.16H65.2102V150.926H61.7375V148.219H56.0773V145.43H61.7375V142.914H56.5285C54.8605 146.77 51.1828 149.477 45.8234 150.898L44.5109 148.109C50.1164 146.674 53.2609 143.871 53.8078 140.508H45.9328V137.691H57.5539ZM48.1203 154.672V151.938H65.2102V160.961H61.7375V154.672H48.1203ZM83.1695 141.766C83.1559 146.332 85.234 150.912 89.4586 152.703L87.4078 155.492C84.5641 154.207 82.5953 151.719 81.4605 148.643C80.3395 152.006 78.3023 154.713 75.2672 156.094L73.1617 153.195C77.5094 151.363 79.6285 146.592 79.6422 141.766V138.047H83.1695V141.766ZM90.7984 161.07V136.133H94.3258V161.07H90.7984ZM118.372 136.133V151.746H115.063V145.129H113.067V150.926H109.813V136.598H113.067V142.285H115.063V136.133H118.372ZM96.8523 141.41V138.703H101.255V136.352H104.727V138.703H109.075V141.41H96.8523ZM97.618 146.578C97.6043 143.967 99.8875 142.23 103.005 142.23C106.163 142.23 108.432 143.967 108.446 146.578C108.432 149.162 106.163 150.885 103.005 150.898C99.8875 150.885 97.6043 149.162 97.618 146.578ZM100.735 146.578C100.721 147.727 101.637 148.424 103.005 148.41C104.358 148.424 105.288 147.727 105.302 146.578C105.288 145.416 104.358 144.732 103.005 144.746C101.651 144.732 100.721 145.416 100.735 146.578ZM101.255 156.504C101.241 153.619 104.509 151.979 109.868 151.965C115.241 151.979 118.481 153.619 118.509 156.504C118.481 159.375 115.241 161.029 109.868 161.016C104.509 161.029 101.241 159.375 101.255 156.504ZM104.755 156.504C104.727 157.762 106.491 158.391 109.868 158.391C113.259 158.391 114.981 157.762 114.981 156.504C114.981 155.191 113.259 154.576 109.868 154.59C106.491 154.576 104.727 155.191 104.755 156.504ZM126.148 138.703L125.793 152.566H122.293L121.938 138.703H126.148ZM121.773 156.449C121.746 155.191 122.785 154.166 124.07 154.18C125.287 154.166 126.34 155.191 126.34 156.449C126.34 157.721 125.287 158.746 124.07 158.746C122.785 158.746 121.746 157.721 121.773 156.449Z" fill="white"/>
<path d="M33.7109 194.793H32.041V188.869H29.0352V187.516H32.041V183.262H33.7109V194.793ZM20.5977 191.506C21.3887 191.236 22.0801 190.844 22.6719 190.328C23.2695 189.807 23.7266 189.209 24.043 188.535C24.3594 187.861 24.5176 187.164 24.5176 186.443V185.828H21.1074V184.457H29.5977V185.828H26.2227V186.443C26.2168 187.1 26.3662 187.741 26.6709 188.368C26.9814 188.995 27.4238 189.555 27.998 190.047C28.5723 190.539 29.2461 190.914 30.0195 191.172L29.1582 192.508C28.291 192.203 27.5352 191.752 26.8906 191.154C26.2461 190.557 25.748 189.859 25.3965 189.062C25.0508 189.941 24.5381 190.712 23.8584 191.374C23.1846 192.036 22.3848 192.531 21.459 192.859L20.5977 191.506ZM23.4805 193.756H25.1504V197.307H34.1328V198.66H23.4805V193.756ZM50.0832 192.561H43.8254V195.619H42.173V192.561H35.6691V191.207H50.0832V192.561ZM37.4621 194.125H39.132V197.307H48.4836V198.66H37.4621V194.125ZM37.5148 183.982H48.2199V189.572H37.5148V183.982ZM46.5676 188.254V185.301H39.1496V188.254H46.5676ZM63.0629 189.52H65.5063V190.908H63.0629V198.977H61.393V183.244H63.0629V189.52ZM50.8109 194.775C52.7797 193.791 54.3002 192.59 55.3725 191.172C56.4506 189.754 57.0746 188.125 57.2445 186.285H51.602V184.896H58.9496C58.9379 187.299 58.3549 189.458 57.2006 191.374C56.0463 193.284 54.227 194.852 51.7426 196.076L50.8109 194.775ZM70.6285 184.246C71.4313 184.246 72.152 184.404 72.7906 184.721C73.4352 185.037 73.942 185.479 74.3111 186.048C74.6803 186.616 74.8648 187.264 74.8648 187.99C74.8648 188.629 74.7213 189.209 74.4342 189.73C74.1471 190.252 73.7457 190.68 73.2301 191.014C72.7203 191.348 72.1344 191.567 71.4723 191.673V194.169C73.0367 194.093 74.402 193.979 75.568 193.826L75.691 195.074C74.3961 195.297 73.0396 195.452 71.6217 195.54C70.2037 195.622 68.7389 195.663 67.2271 195.663L65.9703 195.654L65.7066 194.283H65.8824C67.6109 194.271 68.9176 194.254 69.8023 194.23V191.673C69.1285 191.573 68.5338 191.356 68.0182 191.022C67.5025 190.688 67.1012 190.261 66.8141 189.739C66.5328 189.218 66.3922 188.635 66.3922 187.99C66.3922 187.264 66.5709 186.616 66.9283 186.048C67.2916 185.479 67.7955 185.037 68.44 184.721C69.0846 184.404 69.8141 184.246 70.6285 184.246ZM68.0094 187.99C68.0094 188.447 68.1207 188.854 68.3434 189.212C68.566 189.563 68.8766 189.836 69.275 190.029C69.6793 190.217 70.1305 190.311 70.6285 190.311C71.1207 190.311 71.5631 190.217 71.9557 190.029C72.3541 189.836 72.6646 189.563 72.8873 189.212C73.1158 188.854 73.2301 188.447 73.2301 187.99C73.2301 187.527 73.1158 187.12 72.8873 186.769C72.6646 186.417 72.357 186.145 71.9645 185.951C71.5719 185.758 71.1266 185.658 70.6285 185.652C70.1246 185.658 69.6734 185.758 69.275 185.951C68.8766 186.145 68.566 186.42 68.3434 186.777C68.1207 187.129 68.0094 187.533 68.0094 187.99ZM76.5172 183.244H78.1871V189.643H80.6129V191.049H78.1871V198.994H76.5172V183.244ZM90.3828 185.758C90.3828 186.443 90.5352 187.103 90.8398 187.735C91.1504 188.368 91.5928 188.928 92.167 189.414C92.7412 189.9 93.4121 190.27 94.1797 190.521L93.2832 191.84C92.4336 191.541 91.6895 191.099 91.0508 190.513C90.418 189.921 89.9287 189.232 89.583 188.447C89.2373 189.344 88.7334 190.123 88.0713 190.785C87.415 191.447 86.6328 191.945 85.7246 192.279L84.8281 190.943C85.6367 190.656 86.3311 190.246 86.9111 189.713C87.4971 189.18 87.9453 188.562 88.2559 187.858C88.5664 187.149 88.7246 186.402 88.7305 185.617V184.07H90.3828V185.758ZM86.9551 196.041C86.9551 195.432 87.166 194.907 87.5879 194.468C88.0156 194.028 88.625 193.694 89.416 193.466C90.2129 193.237 91.1562 193.123 92.2461 193.123C93.3184 193.123 94.2471 193.237 95.0322 193.466C95.8174 193.694 96.418 194.028 96.834 194.468C97.2559 194.907 97.4668 195.432 97.4668 196.041C97.4668 196.656 97.2559 197.184 96.834 197.623C96.418 198.062 95.8174 198.394 95.0322 198.616C94.2529 198.845 93.3242 198.959 92.2461 198.959C91.1562 198.959 90.2129 198.845 89.416 198.616C88.625 198.394 88.0156 198.062 87.5879 197.623C87.166 197.184 86.9551 196.656 86.9551 196.041ZM88.625 196.041C88.6191 196.557 88.9326 196.952 89.5654 197.228C90.2041 197.503 91.0977 197.646 92.2461 197.658C93.3887 197.646 94.2734 197.503 94.9004 197.228C95.5273 196.952 95.8379 196.557 95.832 196.041C95.832 195.707 95.6914 195.42 95.4102 195.18C95.1289 194.939 94.7188 194.758 94.1797 194.635C93.6406 194.506 92.9961 194.441 92.2461 194.441C91.4902 194.441 90.8398 194.506 90.2949 194.635C89.7559 194.758 89.3428 194.939 89.0557 195.18C88.7686 195.42 88.625 195.707 88.625 196.041ZM95.6562 183.244H97.3262V187.199H99.6113V188.605H97.3262V192.754H95.6562V183.244ZM112.433 186.988H114.718V188.377H112.433V192.139H110.763V183.244H112.433V186.988ZM100.761 184.281H107.757V185.635H102.413V189.977C103.96 189.977 105.229 189.941 106.219 189.871C107.215 189.795 108.202 189.66 109.181 189.467L109.374 190.803C108.361 191.014 107.329 191.154 106.28 191.225C105.232 191.295 103.808 191.33 102.009 191.33H100.761V184.281ZM102.378 192.912H112.433V198.783H102.378V192.912ZM110.78 197.447V194.248H104.013V197.447H110.78ZM132.662 186.355H119.847V184.984H125.455V183.174H127.107V184.984H132.662V186.355ZM119.109 193.439H133.523V194.811H127.107V199.012H125.455V194.811H119.109V193.439ZM121.043 189.818C121.043 189.25 121.248 188.767 121.658 188.368C122.074 187.97 122.674 187.668 123.46 187.463C124.245 187.258 125.185 187.158 126.281 187.164C127.371 187.158 128.308 187.258 129.093 187.463C129.879 187.668 130.479 187.97 130.895 188.368C131.311 188.767 131.519 189.25 131.519 189.818C131.519 190.375 131.311 190.85 130.895 191.242C130.479 191.635 129.879 191.937 129.093 192.147C128.308 192.353 127.371 192.455 126.281 192.455C125.191 192.455 124.254 192.353 123.468 192.147C122.683 191.937 122.083 191.635 121.667 191.242C121.251 190.85 121.043 190.375 121.043 189.818ZM122.765 189.818C122.765 190.252 123.064 190.589 123.662 190.829C124.259 191.069 125.112 191.189 126.219 191.189C127.368 191.189 128.25 191.072 128.865 190.838C129.48 190.604 129.791 190.264 129.796 189.818C129.791 189.367 129.483 189.021 128.874 188.781C128.27 188.535 127.406 188.412 126.281 188.412C125.15 188.412 124.28 188.535 123.671 188.781C123.067 189.021 122.765 189.367 122.765 189.818ZM35.293 215.803H32.8496V223.977H31.1797V208.244H32.8496V214.432H35.293V215.803ZM21.1777 209.773H22.8301V218.633C25.2383 218.621 27.5703 218.387 29.8262 217.93L30.0195 219.336C28.7422 219.588 27.4854 219.767 26.249 219.872C25.0127 219.978 23.7559 220.027 22.4785 220.021H21.1777V209.773ZM49.2395 223.994H47.6398V208.244H49.2395V223.994ZM35.8625 215.047C35.8625 213.922 36.0002 212.943 36.2756 212.111C36.5568 211.273 36.9523 210.632 37.4621 210.187C37.9777 209.735 38.5754 209.51 39.2551 209.51C39.8879 209.51 40.4475 209.7 40.9338 210.081C41.426 210.462 41.8186 211.013 42.1115 211.733C42.4104 212.448 42.592 213.295 42.6564 214.273H44.4406V208.543H46.0402V223.221H44.4406V215.627H42.6652C42.6184 216.646 42.4484 217.531 42.1555 218.281C41.8625 219.025 41.467 219.6 40.9689 220.004C40.4709 220.402 39.8996 220.602 39.2551 220.602C38.5754 220.602 37.9777 220.379 37.4621 219.934C36.9523 219.482 36.5568 218.838 36.2756 218C36.0002 217.156 35.8625 216.172 35.8625 215.047ZM37.4094 215.047C37.4094 215.873 37.4826 216.585 37.6291 217.183C37.7814 217.78 37.9953 218.237 38.2707 218.554C38.552 218.864 38.8801 219.02 39.2551 219.02C39.6418 219.02 39.9758 218.864 40.257 218.554C40.5383 218.237 40.7551 217.78 40.9074 217.183C41.0598 216.585 41.1359 215.873 41.1359 215.047C41.1359 214.215 41.0598 213.503 40.9074 212.911C40.7551 212.313 40.5383 211.859 40.257 211.549C39.9758 211.232 39.6418 211.074 39.2551 211.074C38.8801 211.074 38.552 211.232 38.2707 211.549C37.9953 211.859 37.7814 212.313 37.6291 212.911C37.4826 213.509 37.4094 214.221 37.4094 215.047ZM64.3285 223.994H62.7465V208.244H64.3285V223.994ZM50.7406 219.441C52.3813 218.469 53.6264 217.329 54.476 216.022C55.3256 214.71 55.8236 213.225 55.9701 211.566H51.4789V210.195H57.6313C57.6195 211.812 57.3852 213.271 56.9281 214.572H59.4242V208.648H61.0063V223.221H59.4242V215.908H56.348C55.3754 217.812 53.8227 219.389 51.6898 220.637L50.7406 219.441ZM77.825 216.084H70.4598V209.299H77.825V216.084ZM71.3738 222.641C72.2645 222.512 73.0701 222.289 73.7908 221.973C74.5174 221.656 75.1033 221.275 75.5486 220.83C75.9939 220.379 76.2576 219.898 76.3396 219.389H72.0066V218.053H82.4656V219.389H78.1502C78.2264 219.887 78.49 220.361 78.9412 220.812C79.3924 221.258 79.9813 221.645 80.7078 221.973C81.4344 222.295 82.2371 222.523 83.116 222.658L82.5008 223.941C81.3055 223.754 80.242 223.399 79.3104 222.878C78.3787 222.356 77.6844 221.724 77.2273 220.979C76.782 221.729 76.0965 222.362 75.1707 222.878C74.2508 223.394 73.1902 223.742 71.9891 223.924L71.3738 222.641ZM76.1902 214.748V210.635H72.0945V214.748H76.1902ZM80.5496 208.244H82.2195V211.9H84.5047V213.289H82.2195V217.174H80.5496V208.244ZM97.6953 214.186H86.8496V208.807H88.502V212.85H97.6953V214.186ZM84.9336 216.172H99.3477V217.508H84.9336V216.172ZM86.7266 219.002H88.3965V222.254H97.8008V223.625H86.7266V219.002ZM117.133 219.863H115.463V214.396H112.194V213.008H115.463V208.262H117.133V219.863ZM104.231 216.77C105.403 216.389 106.437 215.905 107.333 215.319C108.23 214.728 108.948 214.051 109.487 213.289C110.026 212.527 110.351 211.707 110.462 210.828H105.039V209.439H112.299C112.293 210.793 111.992 212.035 111.394 213.166C110.802 214.297 109.955 215.281 108.854 216.119C107.758 216.957 106.452 217.619 104.934 218.105L104.231 216.77ZM106.991 218.668H108.678V222.307H117.537V223.66H106.991V218.668ZM131.484 212.217H133.769V213.57H131.484V217.596H129.814V208.244H131.484V212.217ZM119.091 216.365C120.316 216.02 121.377 215.568 122.273 215.012C123.175 214.455 123.887 213.813 124.409 213.087C124.936 212.36 125.25 211.572 125.349 210.723H119.795V209.369H127.16C127.16 210.711 126.867 211.93 126.281 213.025C125.695 214.121 124.848 215.067 123.741 215.864C122.639 216.655 121.318 217.273 119.777 217.719L119.091 216.365ZM121.236 220.865C121.23 220.232 121.441 219.685 121.869 219.222C122.302 218.753 122.912 218.396 123.697 218.149C124.488 217.897 125.408 217.771 126.457 217.771C127.505 217.771 128.422 217.897 129.208 218.149C129.993 218.396 130.596 218.753 131.018 219.222C131.446 219.685 131.66 220.232 131.66 220.865C131.66 221.504 131.446 222.055 131.018 222.518C130.596 222.986 129.993 223.347 129.208 223.599C128.428 223.851 127.511 223.977 126.457 223.977C125.408 223.977 124.488 223.851 123.697 223.599C122.906 223.347 122.296 222.986 121.869 222.518C121.441 222.055 121.23 221.504 121.236 220.865ZM122.888 220.865C122.888 221.229 123.032 221.545 123.319 221.814C123.606 222.084 124.016 222.292 124.549 222.438C125.088 222.585 125.724 222.658 126.457 222.658C127.183 222.658 127.813 222.585 128.346 222.438C128.885 222.292 129.298 222.084 129.586 221.814C129.879 221.545 130.025 221.229 130.025 220.865C130.025 220.502 129.881 220.188 129.594 219.925C129.307 219.655 128.897 219.45 128.364 219.31C127.837 219.163 127.215 219.09 126.501 219.09C125.756 219.09 125.112 219.16 124.567 219.301C124.028 219.441 123.612 219.646 123.319 219.916C123.032 220.18 122.888 220.496 122.888 220.865ZM147.311 223.994H145.624V208.244H147.311V223.994ZM134.374 219.775C136.436 218.791 138.004 217.593 139.076 216.181C140.148 214.769 140.766 213.131 140.93 211.268H135.13V209.932H142.618C142.618 212.369 142.035 214.534 140.869 216.427C139.709 218.319 137.837 219.887 135.253 221.129L134.374 219.775ZM162.049 213.852H151.238V208.525H152.891V212.498H162.049V213.852ZM149.322 215.521H163.701V216.893H149.322V215.521ZM151.027 221.041C151.027 220.432 151.244 219.913 151.678 219.485C152.111 219.058 152.738 218.732 153.559 218.51C154.379 218.287 155.357 218.176 156.494 218.176C157.625 218.176 158.595 218.287 159.403 218.51C160.218 218.732 160.842 219.058 161.275 219.485C161.709 219.913 161.926 220.432 161.926 221.041C161.926 221.65 161.709 222.169 161.275 222.597C160.842 223.03 160.218 223.358 159.403 223.581C158.595 223.81 157.625 223.924 156.494 223.924C155.357 223.924 154.379 223.81 153.559 223.581C152.738 223.358 152.111 223.03 151.678 222.597C151.244 222.169 151.027 221.65 151.027 221.041ZM152.715 221.041C152.709 221.545 153.034 221.938 153.69 222.219C154.353 222.494 155.287 222.635 156.494 222.641C157.684 222.635 158.606 222.494 159.263 222.219C159.925 221.938 160.256 221.545 160.256 221.041C160.256 220.537 159.928 220.153 159.271 219.89C158.621 219.62 157.695 219.482 156.494 219.477C155.281 219.482 154.347 219.62 153.69 219.89C153.034 220.153 152.709 220.537 152.715 221.041ZM170.159 210.512C170.159 211.238 170.315 211.933 170.625 212.595C170.942 213.251 171.393 213.831 171.979 214.335C172.571 214.839 173.265 215.223 174.062 215.486L173.218 216.805C172.31 216.494 171.522 216.031 170.854 215.416C170.186 214.801 169.673 214.077 169.316 213.245C168.958 214.136 168.44 214.915 167.76 215.583C167.08 216.245 166.28 216.74 165.361 217.068L164.517 215.768C165.32 215.48 166.017 215.07 166.609 214.537C167.2 213.998 167.654 213.38 167.971 212.683C168.287 211.985 168.448 211.262 168.454 210.512V209H170.159V210.512ZM166.82 218.457H177.489V223.994H175.82V219.811H166.82V218.457ZM175.82 208.244H177.489V217.701H175.82V208.244ZM193.897 217.121H187.534V218.809H192.139V223.801H181.258V218.809H185.881V217.121H179.536V215.785H193.897V217.121ZM180.854 208.736H192.543V210.09H190.258V213.096H192.473V214.449H180.924V213.096H183.157V210.09H180.854V208.736ZM190.522 222.447V220.127H182.911V222.447H190.522ZM188.588 213.096V210.09H184.809V213.096H188.588ZM201.814 208.508C202.998 208.508 204.008 208.61 204.846 208.815C205.684 209.021 206.326 209.328 206.771 209.738C207.216 210.143 207.439 210.635 207.439 211.215C207.439 211.801 207.216 212.299 206.771 212.709C206.326 213.113 205.684 213.421 204.846 213.632C204.008 213.837 202.998 213.939 201.814 213.939C200.63 213.939 199.617 213.837 198.773 213.632C197.935 213.421 197.294 213.113 196.848 212.709C196.409 212.299 196.189 211.801 196.189 211.215C196.189 210.635 196.409 210.143 196.848 209.738C197.294 209.328 197.935 209.021 198.773 208.815C199.617 208.61 200.63 208.508 201.814 208.508ZM194.642 214.906H209.004V216.242H194.642V214.906ZM196.365 217.455H207.193V221.146H198.017V222.553H207.632V223.836H196.382V219.934H205.541V218.703H196.365V217.455ZM197.929 211.215C197.923 211.701 198.254 212.07 198.922 212.322C199.59 212.568 200.554 212.691 201.814 212.691C203.086 212.691 204.055 212.568 204.723 212.322C205.391 212.07 205.722 211.701 205.716 211.215C205.722 210.746 205.385 210.383 204.706 210.125C204.032 209.867 203.068 209.738 201.814 209.738C200.566 209.738 199.605 209.867 198.931 210.125C198.257 210.383 197.923 210.746 197.929 211.215ZM33.6758 241.383H31.9883V233.244H33.6758V241.383ZM20.8438 239.572C21.2305 239.572 21.8691 239.566 22.7598 239.555V235.6H21.2656V234.281H29.8262V235.6H28.3145V239.326C29.1055 239.273 29.8496 239.203 30.5469 239.115L30.6172 240.328C29.2168 240.539 27.7139 240.688 26.1084 240.776C24.5029 240.864 22.9092 240.908 21.3271 240.908H21.0371L20.8438 239.572ZM23.2168 242.104H33.6758V246.006H24.9043V247.5H34.2207V248.836H23.2695V244.793H32.0234V243.422H23.2168V242.104ZM24.3594 239.52C25.4199 239.484 26.2051 239.452 26.7148 239.423V235.6H24.3594V239.52ZM50.1008 247.025H35.6867V245.637H39.132V241.523C38.4699 241.16 37.9572 240.7 37.5939 240.144C37.2307 239.587 37.052 238.963 37.0578 238.271C37.0578 237.457 37.3039 236.739 37.7961 236.118C38.2883 235.497 38.9738 235.017 39.8527 234.677C40.7375 234.331 41.7395 234.158 42.8586 234.158C43.9777 234.158 44.9797 234.331 45.8645 234.677C46.7492 235.017 47.4377 235.497 47.9299 236.118C48.4279 236.739 48.677 237.457 48.677 238.271C48.677 238.957 48.5012 239.575 48.1496 240.126C47.798 240.671 47.3 241.125 46.6555 241.488V245.637H50.1008V247.025ZM38.675 238.271C38.675 238.828 38.8508 239.317 39.2023 239.739C39.5539 240.161 40.0461 240.489 40.6789 240.724C41.3117 240.952 42.0383 241.066 42.8586 241.066C43.673 241.066 44.3967 240.949 45.0295 240.715C45.6682 240.48 46.1662 240.155 46.5236 239.739C46.8811 239.317 47.0598 238.828 47.0598 238.271C47.0598 237.715 46.8811 237.229 46.5236 236.812C46.1662 236.391 45.6682 236.065 45.0295 235.837C44.3967 235.608 43.673 235.494 42.8586 235.494C42.0383 235.494 41.3117 235.608 40.6789 235.837C40.0461 236.065 39.5539 236.391 39.2023 236.812C38.8508 237.229 38.675 237.715 38.675 238.271ZM44.968 245.637V242.139C44.3117 242.291 43.6086 242.367 42.8586 242.367C42.1203 242.367 41.4289 242.291 40.7844 242.139V245.637H44.968ZM63.1684 238.324H65.4535V239.713H63.1684V245.039H61.4984V233.262H63.1684V238.324ZM50.8109 235.09H54.6781V233.244H56.348V235.09H60.1977V236.443H50.8109V235.09ZM51.6723 240.17C51.6723 239.578 51.8305 239.057 52.1469 238.605C52.4691 238.154 52.9203 237.809 53.5004 237.568C54.0805 237.322 54.7484 237.199 55.5043 237.199C56.2543 237.199 56.9164 237.322 57.4906 237.568C58.0707 237.809 58.5189 238.154 58.8354 238.605C59.1576 239.057 59.3188 239.578 59.3188 240.17C59.3188 240.756 59.1576 241.271 58.8354 241.717C58.5189 242.162 58.0707 242.508 57.4906 242.754C56.9164 243 56.2543 243.123 55.5043 243.123C54.7484 243.123 54.0805 243 53.5004 242.754C52.9203 242.508 52.4691 242.162 52.1469 241.717C51.8305 241.271 51.6723 240.756 51.6723 240.17ZM53.184 244.107H54.8539V247.307H63.8363V248.66H53.184V244.107ZM53.2895 240.17C53.2836 240.504 53.3715 240.797 53.5531 241.049C53.7348 241.295 53.9896 241.485 54.3178 241.62C54.6518 241.755 55.0385 241.822 55.4779 241.822C56.1576 241.822 56.7055 241.676 57.1215 241.383C57.5375 241.09 57.7484 240.686 57.7543 240.17C57.7484 239.654 57.5404 239.247 57.1303 238.948C56.7201 238.644 56.1781 238.488 55.5043 238.482C55.059 238.482 54.6664 238.553 54.3266 238.693C53.9926 238.828 53.7348 239.024 53.5531 239.282C53.3715 239.534 53.2836 239.83 53.2895 240.17ZM84.452 236.848H82.2195V238.852H84.452V240.24H82.2195V242.543H80.5496V233.244H82.2195V235.477H84.452V236.848ZM70.0906 237.902C70.0848 237.176 70.2605 236.528 70.618 235.96C70.9813 235.392 71.4822 234.949 72.1209 234.633C72.7596 234.316 73.4773 234.158 74.2742 234.158C75.0711 234.158 75.7859 234.316 76.4188 234.633C77.0574 234.949 77.5584 235.392 77.9217 235.96C78.285 236.528 78.4695 237.176 78.4754 237.902C78.4695 238.623 78.285 239.268 77.9217 239.836C77.5584 240.404 77.0574 240.85 76.4188 241.172C75.7859 241.488 75.0711 241.646 74.2742 241.646C73.4773 241.646 72.7596 241.488 72.1209 241.172C71.4822 240.85 70.9813 240.404 70.618 239.836C70.2605 239.268 70.0848 238.623 70.0906 237.902ZM71.7254 237.902C71.7195 238.359 71.825 238.764 72.0418 239.115C72.2645 239.467 72.5691 239.742 72.9559 239.941C73.3426 240.135 73.782 240.234 74.2742 240.24C74.7664 240.234 75.2059 240.135 75.5926 239.941C75.9793 239.742 76.284 239.467 76.5066 239.115C76.7293 238.764 76.8406 238.359 76.8406 237.902C76.8406 237.445 76.7293 237.041 76.5066 236.689C76.284 236.332 75.9764 236.057 75.5838 235.863C75.1971 235.664 74.7605 235.564 74.2742 235.564C73.7879 235.564 73.3484 235.664 72.9559 235.863C72.5691 236.057 72.2645 236.332 72.0418 236.689C71.825 237.041 71.7195 237.445 71.7254 237.902ZM71.8484 245.971C71.8484 245.35 72.0623 244.813 72.49 244.362C72.9178 243.911 73.5271 243.565 74.3182 243.325C75.115 243.085 76.0555 242.965 77.1395 242.965C78.2059 242.965 79.1316 243.085 79.9168 243.325C80.702 243.565 81.3055 243.911 81.7273 244.362C82.1492 244.813 82.3602 245.35 82.3602 245.971C82.3602 246.592 82.1492 247.128 81.7273 247.579C81.3055 248.03 80.702 248.373 79.9168 248.607C79.1316 248.842 78.2059 248.959 77.1395 248.959C76.0613 248.959 75.1238 248.842 74.327 248.607C73.5301 248.373 72.9178 248.03 72.49 247.579C72.0623 247.128 71.8484 246.592 71.8484 245.971ZM73.5184 245.971C73.5125 246.498 73.823 246.905 74.45 247.192C75.077 247.479 75.9559 247.623 77.0867 247.623C78.2469 247.623 79.1434 247.482 79.7762 247.201C80.4148 246.914 80.7313 246.504 80.7254 245.971C80.7313 245.449 80.4207 245.045 79.7938 244.758C79.1727 244.465 78.3025 244.318 77.1834 244.318C76.0232 244.318 75.1209 244.462 74.4764 244.749C73.8318 245.036 73.5125 245.443 73.5184 245.971ZM96.8762 241.98H89.5109V234.633H96.8762V241.98ZM95.2414 240.662V235.986H91.1457V240.662H95.2414ZM91.2863 243.668H92.9563V247.307H101.939V248.66H91.2863V243.668ZM99.6008 233.227H101.271V237.938H103.556V239.344H101.271V244.775H99.6008V233.227ZM116.588 235.213V235.74C116.588 236.525 116.559 237.281 116.5 238.008C116.448 238.729 116.333 239.52 116.158 240.381H118.399V241.752H104.002V240.381H114.47C114.64 239.572 114.757 238.825 114.822 238.14L105.62 238.57L105.409 237.182L114.91 236.918C114.927 236.52 114.936 235.963 114.936 235.248H105.813V233.877H116.588V235.213ZM105.76 243.387H116.606V248.801H105.76V243.387ZM114.954 247.447V244.723H107.395V247.447H114.954ZM135.587 235.617C135.587 236.637 135.56 237.539 135.508 238.324C135.461 239.104 135.341 239.988 135.147 240.979H137.415V242.35H131.034V249.012H129.346V242.35H123.054V240.979H133.46C133.665 239.988 133.794 239.106 133.846 238.333C133.899 237.56 133.929 236.654 133.934 235.617V235.6H124.811V234.229H135.587V235.617ZM151.713 248.994H150.113V240.785H148.162V248.221H146.58V233.543H148.162V239.414H150.113V233.244H151.713V248.994ZM138.688 235.02H144.805V244.846H138.688V235.02ZM143.24 243.51V236.338H140.27V243.51H143.24ZM165.642 236.883H167.945V238.254H165.642V241.857H163.972V233.191H165.642V236.883ZM153.284 234.58H157.152V233.104H158.821V234.58H162.671V235.898H153.284V234.58ZM154.146 239.08C154.146 238.559 154.301 238.104 154.612 237.718C154.928 237.325 155.376 237.023 155.956 236.812C156.536 236.602 157.21 236.496 157.978 236.496C158.745 236.496 159.416 236.602 159.99 236.812C160.565 237.023 161.007 237.322 161.318 237.709C161.634 238.096 161.792 238.553 161.792 239.08C161.792 239.607 161.634 240.064 161.318 240.451C161.007 240.838 160.565 241.134 159.99 241.339C159.416 241.544 158.745 241.646 157.978 241.646C157.21 241.646 156.536 241.544 155.956 241.339C155.376 241.134 154.928 240.838 154.612 240.451C154.301 240.064 154.146 239.607 154.146 239.08ZM155.464 242.596H165.642V246.252H157.134V247.57H166.187V248.836H155.499V245.074H163.989V243.844H155.464V242.596ZM155.763 239.08C155.757 239.502 155.953 239.833 156.352 240.073C156.75 240.313 157.292 240.434 157.978 240.434C158.657 240.434 159.199 240.313 159.604 240.073C160.014 239.833 160.222 239.502 160.228 239.08C160.222 238.658 160.014 238.324 159.604 238.078C159.199 237.826 158.657 237.697 157.978 237.691C157.292 237.697 156.75 237.826 156.352 238.078C155.953 238.324 155.757 238.658 155.763 239.08ZM180.386 234.633C180.386 235.318 180.638 235.978 181.142 236.61C181.652 237.243 182.337 237.782 183.199 238.228C184.066 238.673 185.009 238.963 186.029 239.098L185.379 240.469C184.523 240.334 183.712 240.1 182.944 239.766C182.176 239.432 181.497 239.019 180.905 238.526C180.319 238.028 179.856 237.475 179.516 236.865C179.176 237.475 178.711 238.028 178.119 238.526C177.533 239.019 176.859 239.432 176.097 239.766C175.336 240.094 174.527 240.328 173.671 240.469L173.004 239.098C174.023 238.963 174.963 238.676 175.825 238.236C176.686 237.797 177.372 237.261 177.881 236.628C178.391 235.989 178.646 235.324 178.646 234.633V233.771H180.386V234.633ZM172.318 242.016H186.679V243.387H180.281V248.994H178.646V243.387H172.318V242.016ZM196.836 243.65C196.836 244.359 197.015 245.042 197.372 245.698C197.729 246.349 198.251 246.879 198.937 247.289C199.399 246.99 199.792 246.636 200.114 246.226C200.442 245.815 200.686 245.388 200.844 244.942C201.008 244.497 201.09 244.066 201.09 243.65V242.895H202.725V243.65C202.719 244.201 202.836 244.734 203.076 245.25C203.316 245.76 203.671 246.214 204.14 246.612C204.614 247.011 205.186 247.318 205.854 247.535L205.027 248.766C204.266 248.502 203.618 248.121 203.085 247.623C202.552 247.131 202.145 246.554 201.863 245.892C201.6 246.56 201.225 247.157 200.738 247.685C200.258 248.212 199.672 248.619 198.98 248.906C198.254 248.631 197.642 248.235 197.144 247.72C196.651 247.204 196.279 246.609 196.027 245.936C195.734 246.574 195.324 247.14 194.797 247.632C194.275 248.124 193.654 248.502 192.934 248.766L192.09 247.535C192.74 247.301 193.3 246.979 193.769 246.568C194.243 246.152 194.601 245.692 194.841 245.188C195.087 244.679 195.213 244.166 195.219 243.65V242.895H196.836V243.65ZM191.686 237.85C191.686 237.129 191.867 236.487 192.23 235.925C192.594 235.356 193.095 234.914 193.733 234.598C194.372 234.281 195.09 234.123 195.887 234.123C196.684 234.123 197.398 234.281 198.031 234.598C198.67 234.914 199.168 235.356 199.525 235.925C199.889 236.487 200.07 237.129 200.07 237.85C200.07 238.564 199.889 239.203 199.525 239.766C199.168 240.322 198.67 240.759 198.031 241.075C197.398 241.386 196.684 241.541 195.887 241.541C195.09 241.541 194.372 241.386 193.733 241.075C193.095 240.759 192.594 240.322 192.23 239.766C191.867 239.203 191.686 238.564 191.686 237.85ZM193.32 237.85C193.32 238.301 193.429 238.702 193.646 239.054C193.862 239.399 194.167 239.669 194.56 239.862C194.952 240.056 195.395 240.152 195.887 240.152C196.373 240.152 196.81 240.056 197.196 239.862C197.583 239.669 197.885 239.399 198.102 239.054C198.324 238.702 198.436 238.301 198.436 237.85C198.436 237.398 198.324 236.997 198.102 236.646C197.885 236.294 197.583 236.024 197.196 235.837C196.81 235.644 196.373 235.547 195.887 235.547C195.395 235.547 194.952 235.644 194.56 235.837C194.167 236.024 193.862 236.294 193.646 236.646C193.429 236.997 193.32 237.398 193.32 237.85ZM202.76 233.262H204.43V242.227H202.76V233.262ZM210.747 234.422C211.456 234.422 212.095 234.615 212.663 235.002C213.232 235.389 213.692 235.937 214.043 236.646C214.401 237.354 214.62 238.189 214.702 239.15H217.954V233.244H219.607V249.029H217.954V240.504H214.72C214.661 241.518 214.456 242.399 214.105 243.149C213.753 243.899 213.287 244.477 212.707 244.881C212.127 245.279 211.474 245.479 210.747 245.479C209.968 245.479 209.274 245.253 208.664 244.802C208.061 244.351 207.589 243.706 207.249 242.868C206.915 242.03 206.751 241.055 206.757 239.941C206.751 238.84 206.915 237.873 207.249 237.041C207.589 236.203 208.061 235.559 208.664 235.107C209.274 234.65 209.968 234.422 210.747 234.422ZM208.339 239.941C208.339 240.762 208.439 241.477 208.638 242.086C208.843 242.695 209.127 243.164 209.49 243.492C209.854 243.82 210.273 243.984 210.747 243.984C211.222 243.984 211.641 243.82 212.004 243.492C212.367 243.164 212.649 242.695 212.848 242.086C213.053 241.477 213.155 240.762 213.155 239.941C213.155 239.133 213.053 238.427 212.848 237.823C212.643 237.214 212.359 236.745 211.995 236.417C211.638 236.083 211.222 235.916 210.747 235.916C210.273 235.916 209.854 236.083 209.49 236.417C209.133 236.745 208.852 237.214 208.647 237.823C208.442 238.427 208.339 239.133 208.339 239.941ZM235.996 247.025H221.582V245.637H225.028V241.523C224.366 241.16 223.853 240.7 223.49 240.144C223.126 239.587 222.948 238.963 222.954 238.271C222.954 237.457 223.2 236.739 223.692 236.118C224.184 235.497 224.87 235.017 225.748 234.677C226.633 234.331 227.635 234.158 228.754 234.158C229.873 234.158 230.875 234.331 231.76 234.677C232.645 235.017 233.333 235.497 233.826 236.118C234.324 236.739 234.573 237.457 234.573 238.271C234.573 238.957 234.397 239.575 234.045 240.126C233.694 240.671 233.196 241.125 232.551 241.488V245.637H235.996V247.025ZM224.571 238.271C224.571 238.828 224.746 239.317 225.098 239.739C225.45 240.161 225.942 240.489 226.575 240.724C227.207 240.952 227.934 241.066 228.754 241.066C229.569 241.066 230.292 240.949 230.925 240.715C231.564 240.48 232.062 240.155 232.419 239.739C232.777 239.317 232.955 238.828 232.955 238.271C232.955 237.715 232.777 237.229 232.419 236.812C232.062 236.391 231.564 236.065 230.925 235.837C230.292 235.608 229.569 235.494 228.754 235.494C227.934 235.494 227.207 235.608 226.575 235.837C225.942 236.065 225.45 236.391 225.098 236.812C224.746 237.229 224.571 237.715 224.571 238.271ZM230.864 245.637V242.139C230.207 242.291 229.504 242.367 228.754 242.367C228.016 242.367 227.325 242.291 226.68 242.139V245.637H230.864ZM239.431 243.826H237.691L237.533 234.773H239.589L239.431 243.826ZM237.322 246.393C237.322 246.164 237.378 245.953 237.489 245.76C237.6 245.566 237.75 245.414 237.937 245.303C238.13 245.186 238.341 245.127 238.57 245.127C238.793 245.127 238.998 245.183 239.185 245.294C239.379 245.405 239.531 245.558 239.642 245.751C239.759 245.944 239.818 246.152 239.818 246.375C239.818 246.598 239.759 246.806 239.642 246.999C239.531 247.187 239.379 247.339 239.185 247.456C238.998 247.567 238.793 247.623 238.57 247.623C238.347 247.623 238.139 247.567 237.946 247.456C237.758 247.345 237.606 247.195 237.489 247.008C237.378 246.82 237.322 246.615 237.322 246.393Z" fill="white"/>
<defs>
<linearGradient id="paint0_linear_1488_40334" x1="167.5" y1="0" x2="167.5" y2="300" gradientUnits="userSpaceOnUse">
<stop stop-color="#1E859E"/>
<stop offset="1" stop-color="#9CD4C6"/>
</linearGradient>
</defs>
</svg>
