<svg width="335" height="300" viewBox="0 0 335 300" fill="none" xmlns="http://www.w3.org/2000/svg">
<rect width="335" height="300" rx="24" fill="url(#paint0_linear_1488_40376)"/>
<rect x="103.5" y="76" width="128" height="32" rx="16" stroke="white" stroke-width="2"/>
<path d="M137.528 92.8418H135.902V89.2236H133.266V87.9053H135.902V85.5615H137.528V92.8418ZM126.396 91.4941C127.079 91.2793 127.66 90.9619 128.139 90.542C128.622 90.1172 128.986 89.6338 129.23 89.0918C129.479 88.5449 129.604 87.9736 129.604 87.3779V86.0596H131.244V87.4805C131.239 88.0322 131.354 88.5596 131.588 89.0625C131.828 89.5605 132.179 90.0024 132.643 90.3882C133.112 90.769 133.676 91.0596 134.335 91.2598L133.5 92.5342C132.782 92.2998 132.162 91.9556 131.64 91.5015C131.122 91.0425 130.717 90.5029 130.424 89.8828C130.126 90.5664 129.706 91.1572 129.164 91.6553C128.622 92.1533 127.973 92.5293 127.216 92.7832L126.396 91.4941ZM128.798 93.3984H130.424V94.7607H135.902V93.3984H137.528V98.6426H128.798V93.3984ZM135.902 97.3242V96.0205H130.424V97.3242H135.902ZM146.982 88.2275H144.243C144.253 88.6133 144.375 88.9771 144.609 89.3188C144.849 89.6606 145.193 89.9585 145.642 90.2124C146.096 90.4663 146.641 90.6543 147.275 90.7764L146.631 92.0361C145.884 91.8799 145.242 91.6333 144.705 91.2964C144.172 90.9546 143.757 90.542 143.459 90.0586C143.167 90.5908 142.744 91.0425 142.192 91.4136C141.646 91.7847 140.991 92.0508 140.229 92.2119L139.541 90.9521C140.186 90.8252 140.735 90.625 141.189 90.3516C141.648 90.0781 141.995 89.7583 142.229 89.3921C142.468 89.0259 142.593 88.6377 142.603 88.2275H139.878V86.9531H142.617V85.5908H144.243V86.9531H146.982V88.2275ZM139.702 92.9004C141.187 92.9004 142.588 92.876 143.906 92.8271C145.225 92.7783 146.465 92.6807 147.627 92.5342L147.744 93.7061C146.714 93.8867 145.552 94.021 144.258 94.1089V98.3936H142.617V94.1968C141.68 94.231 140.557 94.248 139.248 94.248L139.043 92.9004H139.702ZM148.491 85.5762H150.103V98.7891H148.491V85.5762ZM166.872 94.2627H161.613V98.7891H160.002V94.2627H154.802V92.9443H166.872V94.2627ZM155.432 90.7764C156.276 90.6689 157.028 90.4565 157.688 90.1392C158.352 89.8218 158.874 89.4409 159.255 88.9966C159.641 88.5474 159.853 88.0811 159.892 87.5977H155.915V86.3086H165.759V87.5977H161.782C161.821 88.0811 162.028 88.5474 162.404 88.9966C162.785 89.4409 163.308 89.8218 163.972 90.1392C164.636 90.4565 165.393 90.6689 166.242 90.7764L165.656 92.0508C164.533 91.8896 163.549 91.5649 162.705 91.0767C161.865 90.5884 161.242 89.9854 160.837 89.2676C160.427 89.9854 159.804 90.5884 158.969 91.0767C158.134 91.5649 157.16 91.8896 156.047 92.0508L155.432 90.7764ZM171.683 86.4844C172.376 86.4844 172.999 86.6211 173.55 86.8945C174.102 87.1631 174.534 87.5415 174.847 88.0298C175.164 88.5132 175.325 89.0625 175.33 89.6777C175.325 90.2979 175.164 90.8521 174.847 91.3403C174.534 91.8237 174.102 92.2021 173.55 92.4756C172.999 92.749 172.376 92.8857 171.683 92.8857C170.994 92.8857 170.372 92.749 169.815 92.4756C169.263 92.2021 168.831 91.8213 168.519 91.333C168.206 90.8447 168.05 90.293 168.05 89.6777C168.05 89.0625 168.206 88.5132 168.519 88.0298C168.836 87.5415 169.271 87.1631 169.822 86.8945C170.374 86.6211 170.994 86.4844 171.683 86.4844ZM167.449 94.7168C169.07 94.7168 170.584 94.6899 171.99 94.6362C173.396 94.5776 174.734 94.458 176.004 94.2773L176.136 95.4639C174.827 95.7129 173.492 95.874 172.129 95.9473C170.772 96.0156 169.28 96.0498 167.654 96.0498L167.449 94.7168ZM169.661 89.6777C169.661 90.0391 169.747 90.3564 169.917 90.6299C170.093 90.8984 170.335 91.106 170.643 91.2524C170.95 91.394 171.297 91.4648 171.683 91.4648C172.073 91.4648 172.422 91.394 172.73 91.2524C173.042 91.106 173.287 90.8984 173.462 90.6299C173.643 90.3564 173.733 90.0391 173.733 89.6777C173.733 89.3164 173.643 89.0015 173.462 88.7329C173.287 88.4644 173.042 88.2568 172.73 88.1104C172.422 87.9639 172.073 87.8906 171.683 87.8906C171.297 87.8906 170.95 87.9639 170.643 88.1104C170.335 88.2568 170.093 88.4668 169.917 88.7402C169.747 89.0088 169.661 89.3213 169.661 89.6777ZM176.795 85.5615H178.421V98.8184H176.795V85.5615ZM187.896 88.7402C187.891 89.5361 188.015 90.3125 188.269 91.0693C188.528 91.8262 188.899 92.5049 189.382 93.1055C189.871 93.7012 190.449 94.1602 191.118 94.4824L190.122 95.7861C189.419 95.4297 188.809 94.9219 188.291 94.2627C187.778 93.6035 187.378 92.8418 187.09 91.9775C186.792 92.9004 186.372 93.7158 185.83 94.4238C185.293 95.127 184.653 95.6641 183.911 96.0352L182.915 94.7314C183.604 94.4043 184.199 93.9282 184.702 93.3032C185.21 92.6733 185.596 91.9629 185.859 91.1719C186.128 90.376 186.265 89.5654 186.27 88.7402V86.6309H187.896V88.7402ZM191.909 85.5615H193.535V90.7471H195.571V92.1387H193.535V98.8037H191.909V85.5615ZM200.689 91.8164H197.716V94.3799C198.346 94.3701 198.956 94.3408 199.547 94.292C200.138 94.2383 200.758 94.1602 201.407 94.0576L201.539 95.3906C200.763 95.5225 200.023 95.6128 199.32 95.6616C198.622 95.7056 197.853 95.7275 197.013 95.7275H196.148V90.5273H199.107V88.2275H196.134V86.9092H200.689V91.8164ZM201.349 92.168H202.887V90.2051H201.349V88.9014H202.887V85.7959H204.439V98.1299H202.887V93.501H201.349V92.168ZM205.597 85.5615H207.149V98.8037H205.597V85.5615Z" fill="white"/>
<path d="M61.9791 127.256V144.141H58.7545V136.6H54.6158V133.934H58.7545V127.256H61.9791ZM42.8092 139.266C47.5953 137.768 50.693 135 51.2896 131.598H44.0025V128.957H54.8189C54.8189 135.152 50.8834 139.735 44.1295 141.83L42.8092 139.266ZM46.7447 149.93V142.439H50.0455V147.34H62.5631V149.93H46.7447ZM82.6572 127.23V132.664H85.7803V135.305H82.6572V140.637H79.4072V127.23H82.6572ZM64.1729 138.529C69.2637 137.184 72.1709 134.543 72.6787 131.344H65.2646V128.754H76.208C76.2207 134.911 72.3486 139.228 65.4678 141.145L64.1729 138.529ZM67.2959 145.639C67.2705 142.744 70.4189 140.916 75.1162 140.916C79.8262 140.916 82.8984 142.744 82.9111 145.639C82.8984 148.559 79.8262 150.361 75.1162 150.361C70.4189 150.361 67.2705 148.559 67.2959 145.639ZM70.4951 145.639C70.4824 147.035 72.209 147.835 75.1162 147.822C77.9854 147.835 79.7119 147.035 79.7119 145.639C79.7119 144.217 77.9854 143.43 75.1162 143.43C72.209 143.43 70.4824 144.217 70.4951 145.639ZM105.57 127.23V150.336H102.294V127.23H105.57ZM86.2221 143.785C92.1889 140.967 94.8168 137.311 95.3373 132.182H87.4662V129.643H98.6381C98.6254 136.65 96.1752 142.478 87.9232 146.375L86.2221 143.785ZM126.705 133.02V135.609H110.633V127.586H113.857V133.02H126.705ZM107.967 140.23V137.59H129.092V140.23H107.967ZM110.379 145.969C110.379 143.239 113.426 141.69 118.478 141.678C123.493 141.69 126.502 143.239 126.527 145.969C126.502 148.724 123.493 150.26 118.478 150.26C113.426 150.26 110.379 148.724 110.379 145.969ZM113.679 145.969C113.667 147.175 115.279 147.784 118.478 147.797C121.614 147.784 123.264 147.175 123.277 145.969C123.264 144.737 121.614 144.217 118.478 144.191C115.279 144.217 113.667 144.737 113.679 145.969ZM138.649 130.506C138.623 133.388 140.274 136.193 144.082 137.336L142.457 139.875C139.829 139.037 138.001 137.387 136.973 135.279C135.932 137.552 134.053 139.354 131.336 140.23L129.711 137.691C133.571 136.46 135.272 133.451 135.272 130.506V128.297H138.649V130.506ZM133.24 144.598V142.008H149.135V150.336H145.885V144.598H133.24ZM145.885 141.018V127.23H149.135V141.018H145.885ZM172.682 138.047V140.611H163.745V142.592H170.169V150.082H154.046V142.592H160.52V140.611H151.608V138.047H172.682ZM153.462 130.455V127.865H170.803V130.455H167.782V133.984H170.651V136.574H153.614V133.984H156.458V130.455H153.462ZM157.245 147.492H166.995V145.105H157.245V147.492ZM159.708 133.984H164.532V130.455H159.708V133.984ZM186.429 129.541V131.395C186.403 133.565 186.403 136.409 185.794 140.256L182.595 140.002C183.128 136.65 183.179 134.175 183.204 132.131H174.444V129.541H186.429ZM173.226 143.023C174.521 143.023 175.968 143.011 177.466 142.973V136.168H180.665V142.871C182.938 142.782 185.235 142.617 187.368 142.338L187.571 144.75C182.811 145.55 177.58 145.639 173.53 145.613L173.226 143.023ZM188.46 150.336V127.23H191.735V136.523H194.884V139.215H191.735V150.336H188.46ZM208.082 128.779C211.751 128.767 214.468 131.128 214.48 134.441C214.468 137.768 211.751 140.116 208.082 140.129C204.438 140.116 201.645 137.768 201.658 134.441C201.645 131.128 204.438 128.767 208.082 128.779ZM200.693 143.023C204.819 143.036 210.532 142.985 215.471 142.287L215.724 144.623C210.596 145.626 205.111 145.664 201.074 145.664L200.693 143.023ZM204.883 134.441C204.87 136.27 206.254 137.323 208.082 137.311C209.923 137.323 211.319 136.27 211.332 134.441C211.319 132.639 209.923 131.572 208.082 131.572C206.254 131.572 204.87 132.639 204.883 134.441ZM216.791 150.387V127.23H220.015V150.387H216.791ZM243.74 130.277V132.893H240.744V135.254H243.74V137.945H240.744V140.865H237.494V127.23H240.744V130.277H243.74ZM222.565 134.111C222.552 130.849 225.294 128.487 228.912 128.5C232.492 128.487 235.209 130.849 235.209 134.111C235.209 137.45 232.492 139.786 228.912 139.773C225.294 139.786 222.552 137.45 222.565 134.111ZM225.18 144.395V141.779H240.744V150.336H237.494V144.395H225.18ZM225.764 134.111C225.738 135.978 227.097 137.044 228.912 137.031C230.69 137.044 232.048 135.978 232.061 134.111C232.048 132.309 230.69 131.255 228.912 131.268C227.097 131.255 225.738 132.309 225.764 134.111ZM265.307 138.047V140.611H256.37V142.592H262.794V150.082H246.671V142.592H253.145V140.611H244.233V138.047H265.307ZM246.087 130.455V127.865H263.428V130.455H260.407V133.984H263.276V136.574H246.239V133.984H249.083V130.455H246.087ZM249.87 147.492H259.62V145.105H249.87V147.492ZM252.333 133.984H257.157V130.455H252.333V133.984ZM284.386 127.23V133.705H287.509V136.371H284.386V143.785H281.11V127.23H284.386ZM265.901 138.961C271.081 137.526 274.014 134.848 274.521 131.598H266.917V128.957H278.089C278.076 135.203 274.179 139.57 267.247 141.525L265.901 138.961ZM269.354 149.93V142.084H272.63V147.34H285.173V149.93H269.354ZM86.7248 164.627V167.75H91.2697V164.627H94.4689V166.633H98.7346V163.23H101.959V177.043H98.7346V173.945H94.4689V175.697H83.4748V164.627H86.7248ZM86.1154 181.918C86.1154 179.087 89.1369 177.437 94.0627 177.424C99.0012 177.437 102.023 179.087 102.035 181.918C102.023 184.724 99.0012 186.349 94.0627 186.336C89.1369 186.349 86.1154 184.724 86.1154 181.918ZM86.7248 173.184H91.2697V170.238H86.7248V173.184ZM89.34 181.918C89.34 183.213 91.0031 183.873 94.0627 183.873C97.135 183.873 98.798 183.213 98.8107 181.918C98.798 180.56 97.135 179.899 94.0627 179.912C91.0031 179.899 89.34 180.56 89.34 181.918ZM94.4689 171.355H98.7346V169.197H94.4689V171.355ZM125.379 174.174V176.764H104.305V174.174H109.053V171.406C107.365 170.657 106.413 169.515 106.413 168.029C106.413 165.236 109.701 163.573 114.842 163.561C119.946 163.573 123.234 165.236 123.247 168.029C123.234 169.54 122.256 170.695 120.53 171.432V174.174H125.379ZM106.717 182.121C106.717 179.455 109.752 177.97 114.817 177.982C119.806 177.97 122.84 179.455 122.866 182.121C122.84 184.851 119.806 186.311 114.817 186.311C109.752 186.311 106.717 184.851 106.717 182.121ZM109.79 168.029C109.764 169.299 111.58 169.946 114.842 169.934C118.067 169.946 119.895 169.299 119.895 168.029C119.895 166.734 118.067 166.049 114.842 166.049C111.58 166.049 109.764 166.734 109.79 168.029ZM110.018 182.121C110.005 183.302 111.618 183.898 114.817 183.898C117.953 183.898 119.603 183.302 119.616 182.121C119.603 180.979 117.953 180.433 114.817 180.42C111.618 180.433 110.005 180.979 110.018 182.121ZM112.329 174.174H117.305V172.231C116.544 172.333 115.718 172.371 114.842 172.371C113.941 172.371 113.103 172.32 112.329 172.231V174.174ZM150.943 163.23V175.951H147.718V169.756H143.376V167.141H147.718V163.23H150.943ZM131.316 173.336C135.124 172.168 136.838 169.261 136.851 166.328V164.094H140.126V166.557C140.114 169.273 141.713 171.889 145.357 172.955L143.732 175.494C141.205 174.682 139.466 173.107 138.463 171.114C137.448 173.298 135.632 175.012 132.966 175.875L131.316 173.336ZM135.531 186.082V176.891H138.73V178.998H147.718V176.891H150.943V186.082H135.531ZM138.73 183.492H147.718V181.486H138.73V183.492ZM167.178 165.541V168.055H162.607C162.683 169.87 164.321 171.533 167.736 172.168L166.467 174.656C163.851 174.148 162.049 172.993 161.02 171.444C160.005 173.146 158.164 174.44 155.447 174.986L154.127 172.473C157.618 171.812 159.243 169.997 159.332 168.055H154.736V165.541H159.357V163.281H162.607V165.541H167.178ZM153.34 175.977C157.605 175.977 163.293 175.938 168.168 175.316L168.371 177.652C166.467 177.982 164.512 178.198 162.582 178.338V185.625H159.357V178.516C157.351 178.592 155.434 178.592 153.746 178.592L153.34 175.977ZM169.564 186.336V163.256H172.763V186.336H169.564ZM195.143 163.23V186.336H192.045V163.23H195.143ZM175.313 173.234C175.313 168.067 177.28 164.868 180.34 164.881C183.12 164.868 185.025 167.471 185.38 171.787H187.272V163.561H190.319V185.27H187.272V174.352H185.405C185.126 178.884 183.184 181.639 180.34 181.639C177.28 181.639 175.313 178.427 175.313 173.234ZM178.309 173.234C178.283 176.789 179.045 178.541 180.34 178.516C181.673 178.541 182.46 176.789 182.447 173.234C182.46 169.692 181.673 167.928 180.34 167.928C179.045 167.928 178.283 169.692 178.309 173.234ZM223.347 175.977V178.566H214.358V186.336H211.159V178.566H202.272V175.977H223.347ZM203.313 172.092C207.985 171.521 210.575 169.261 210.918 166.988H204.177V164.449H221.468V166.988H214.727C215.057 169.261 217.608 171.521 222.356 172.092L221.188 174.631C217.126 174.085 214.219 172.358 212.822 169.984C211.413 172.358 208.531 174.085 204.507 174.631L203.313 172.092ZM231.583 164.779C235.252 164.767 237.969 167.128 237.982 170.441C237.969 173.768 235.252 176.116 231.583 176.129C227.94 176.116 225.147 173.768 225.16 170.441C225.147 167.128 227.94 164.767 231.583 164.779ZM224.195 179.023C228.321 179.036 234.034 178.985 238.972 178.287L239.226 180.623C234.097 181.626 228.613 181.664 224.576 181.664L224.195 179.023ZM228.384 170.441C228.371 172.27 229.755 173.323 231.583 173.311C233.424 173.323 234.821 172.27 234.833 170.441C234.821 168.639 233.424 167.572 231.583 167.572C229.755 167.572 228.371 168.639 228.384 170.441ZM240.292 186.387V163.23H243.517V186.387H240.292ZM251.17 165.617L250.84 178.49H247.59L247.26 165.617H251.17ZM247.107 182.096C247.082 180.928 248.047 179.976 249.24 179.988C250.37 179.976 251.347 180.928 251.347 182.096C251.347 183.276 250.37 184.229 249.24 184.229C248.047 184.229 247.082 183.276 247.107 182.096Z" fill="white"/>
<path d="M26.4951 215.639H21.5459V216.814C22.6807 216.878 23.5602 217.095 24.1846 217.464C24.8089 217.833 25.1234 218.337 25.1279 218.975C25.1279 219.435 24.9593 219.827 24.6221 220.15C24.2848 220.474 23.7995 220.718 23.166 220.882C22.5326 221.05 21.7783 221.135 20.9033 221.135C20.0146 221.135 19.2513 221.05 18.6133 220.882C17.9798 220.718 17.4945 220.474 17.1572 220.15C16.82 219.827 16.6514 219.435 16.6514 218.975C16.6514 218.337 16.9658 217.833 17.5947 217.464C18.2236 217.09 19.1123 216.874 20.2607 216.814V215.639H15.3252V214.586H26.4951V215.639ZM15.9131 212.918C16.6377 212.845 17.3031 212.692 17.9092 212.46C18.5153 212.228 19.0052 211.943 19.3789 211.605C19.7526 211.264 19.9691 210.899 20.0283 210.512H16.3506V209.473H25.4971V210.512H21.7783C21.8376 210.904 22.054 211.271 22.4277 211.612C22.8014 211.95 23.2913 212.234 23.8975 212.467C24.5081 212.695 25.1826 212.845 25.9209 212.918L25.4561 213.943C24.7451 213.861 24.0843 213.711 23.4736 213.492C22.8675 213.269 22.3434 212.989 21.9014 212.651C21.4593 212.314 21.1289 211.931 20.9102 211.503C20.6868 211.931 20.3542 212.314 19.9121 212.651C19.4701 212.989 18.946 213.269 18.3398 213.492C17.7337 213.711 17.0752 213.861 16.3643 213.943L15.9131 212.918ZM17.9639 218.975C17.9593 219.348 18.2145 219.638 18.7295 219.843C19.2445 220.043 19.9691 220.141 20.9033 220.137C21.8239 220.141 22.5417 220.043 23.0566 219.843C23.5716 219.638 23.8291 219.348 23.8291 218.975C23.8291 218.596 23.5739 218.307 23.0635 218.106C22.5531 217.906 21.833 217.803 20.9033 217.799C19.96 217.803 19.2331 217.906 18.7227 218.106C18.2122 218.307 17.9593 218.596 17.9639 218.975ZM38.2447 216.213H27.0748V215.16H32.0104V213.834H28.5377V209.199H29.8229V210.525H35.4967V209.199H36.7955V213.834H33.2955V215.16H38.2447V216.213ZM28.3189 217.307H36.8775V221.162H35.565V218.346H28.3189V217.307ZM35.4967 212.795V211.496H29.8229V212.795H35.4967ZM39.8498 221.49H38.551L41.7365 209.637H43.0354L39.8498 221.49ZM45.2146 211.523H48.2771V209.664H49.5623V210.854H52.242V208.912H53.5408V216.309H52.242V214.422H49.5623V215.461H43.9158V209.664H45.2146V211.523ZM48.2771 214.422V212.549H45.2146V214.422H48.2771ZM45.2967 218.852C45.2967 218.364 45.4607 217.947 45.7889 217.601C46.1216 217.254 46.5978 216.99 47.2176 216.808C47.8419 216.621 48.5825 216.527 49.4393 216.527C50.2915 216.527 51.0275 216.621 51.6473 216.808C52.2716 216.99 52.7501 217.254 53.0828 217.601C53.4155 217.947 53.5818 218.364 53.5818 218.852C53.5818 219.33 53.4132 219.74 53.076 220.082C52.7433 220.428 52.2671 220.69 51.6473 220.868C51.0275 221.046 50.2915 221.135 49.4393 221.135C48.5825 221.135 47.8419 221.046 47.2176 220.868C46.5978 220.69 46.1216 220.428 45.7889 220.082C45.4607 219.74 45.2967 219.33 45.2967 218.852ZM46.5818 218.852C46.5773 219.257 46.8257 219.572 47.327 219.795C47.8328 220.018 48.5369 220.132 49.4393 220.137C50.337 220.132 51.0366 220.018 51.5379 219.795C52.0392 219.572 52.2921 219.257 52.2967 218.852C52.2921 218.432 52.0392 218.109 51.5379 217.881C51.0411 217.653 50.3416 217.535 49.4393 217.525C48.5324 217.535 47.8283 217.653 47.327 217.881C46.8257 218.109 46.5773 218.432 46.5818 218.852ZM52.242 213.355V211.893H49.5623V213.355H52.242ZM66.2475 215.939H55.0775V214.887H57.7572V213.239C57.2742 213.043 56.905 212.793 56.6498 212.487C56.3992 212.182 56.2761 211.829 56.2807 211.428C56.2807 210.949 56.4561 210.537 56.807 210.19C57.1625 209.844 57.6684 209.582 58.3246 209.404C58.9854 209.222 59.7624 209.131 60.6557 209.131C61.5489 209.131 62.3236 209.222 62.9799 209.404C63.6361 209.582 64.142 209.844 64.4975 210.19C64.8529 210.537 65.0307 210.949 65.0307 211.428C65.0261 211.829 64.8962 212.184 64.641 212.494C64.3858 212.799 64.0189 213.05 63.5404 213.246V214.887H66.2475V215.939ZM56.4037 218.947C56.4037 218.482 56.5723 218.088 56.9096 217.765C57.2468 217.441 57.7322 217.195 58.3656 217.026C59.0036 216.858 59.767 216.773 60.6557 216.773C61.5307 216.773 62.2849 216.858 62.9184 217.026C63.5518 217.195 64.0372 217.443 64.3744 217.771C64.7117 218.095 64.8803 218.487 64.8803 218.947C64.8803 219.412 64.7117 219.809 64.3744 220.137C64.0372 220.465 63.5518 220.713 62.9184 220.882C62.2895 221.05 61.5352 221.135 60.6557 221.135C59.767 221.135 59.0036 221.05 58.3656 220.882C57.7322 220.713 57.2468 220.465 56.9096 220.137C56.5723 219.813 56.4037 219.417 56.4037 218.947ZM57.6205 211.428C57.6159 211.833 57.8803 212.148 58.4135 212.371C58.9467 212.594 59.6941 212.708 60.6557 212.713C61.6127 212.708 62.3578 212.594 62.891 212.371C63.4288 212.148 63.6954 211.833 63.6908 211.428C63.6908 211.159 63.5701 210.926 63.3285 210.73C63.087 210.535 62.7383 210.386 62.2826 210.286C61.8269 210.181 61.2846 210.129 60.6557 210.129C59.6986 210.133 58.9512 210.25 58.4135 210.478C57.8803 210.701 57.6159 211.018 57.6205 211.428ZM57.7162 218.947C57.7117 219.33 57.9669 219.626 58.4818 219.836C58.9968 220.041 59.7214 220.141 60.6557 220.137C61.5808 220.146 62.2986 220.046 62.809 219.836C63.324 219.626 63.5814 219.33 63.5814 218.947C63.5814 218.574 63.324 218.284 62.809 218.079C62.2986 217.874 61.5808 217.771 60.6557 217.771C59.7169 217.771 58.99 217.874 58.475 218.079C57.9646 218.284 57.7117 218.574 57.7162 218.947ZM62.2553 214.887V213.581C61.7631 213.659 61.2299 213.697 60.6557 213.697C60.1088 213.697 59.5801 213.661 59.0697 213.588V214.887H62.2553ZM80.0943 215.625H78.8092V212.234H76.2252V211.168H78.8092V208.912H80.0943V215.625ZM69.8814 214.545C70.4967 214.34 71.0322 214.039 71.4879 213.643C71.9482 213.242 72.2991 212.781 72.5406 212.262C72.7867 211.738 72.912 211.191 72.9166 210.621V209.363H74.2018V210.703C74.2018 211.227 74.3202 211.729 74.5572 212.207C74.7942 212.686 75.1337 213.107 75.5758 213.472C76.0224 213.836 76.5442 214.112 77.1412 214.299L76.485 215.324C75.8059 215.092 75.2158 214.752 74.7145 214.306C74.2132 213.854 73.8281 213.328 73.5592 212.727C73.2857 213.387 72.8915 213.964 72.3766 214.456C71.8661 214.948 71.2577 215.32 70.5514 215.57L69.8814 214.545ZM72.1236 216.186H73.4088V217.566H78.8092V216.186H80.0943V221.012H72.1236V216.186ZM78.8092 219.959V218.578H73.4088V219.959H78.8092ZM86.3752 211.277C86.3752 211.66 86.4914 212.022 86.7238 212.364C86.9563 212.706 87.2889 213.005 87.7219 213.26C88.1594 213.51 88.6721 213.697 89.26 213.82L88.7268 214.832C88.0295 214.673 87.4257 214.424 86.9152 214.087C86.4048 213.75 86.0129 213.346 85.7395 212.877C85.4706 213.392 85.0764 213.834 84.5568 214.203C84.0419 214.568 83.4266 214.832 82.7111 214.996L82.1643 213.984C82.7567 213.857 83.2717 213.659 83.7092 213.39C84.1467 213.121 84.4816 212.804 84.7141 212.439C84.951 212.075 85.0718 211.688 85.0764 211.277H82.4377V210.252H85.0764V208.939H86.3752V210.252H89.0002V211.277H86.3752ZM81.6311 215.748C83.2033 215.748 84.6457 215.728 85.9582 215.687C87.2707 215.641 88.5171 215.543 89.6975 215.393L89.7932 216.336C88.7495 216.509 87.6148 216.632 86.3889 216.705V220.793H85.09V216.773C84.1923 216.81 83.0985 216.828 81.8088 216.828L81.6311 215.748ZM90.5451 208.926H91.8303V221.162H90.5451V208.926ZM106.675 216.199H105.376V213.096H103.093V212.029H105.376V208.912H106.675V216.199ZM96.4623 215.092C97.0821 214.873 97.6244 214.559 98.0893 214.148C98.5541 213.734 98.9096 213.262 99.1557 212.733C99.4063 212.2 99.5294 211.651 99.5248 211.086V210.812H96.8725V209.76H103.476V210.812H100.851V211.072C100.846 211.592 100.963 212.095 101.2 212.583C101.437 213.071 101.778 213.506 102.225 213.889C102.672 214.267 103.198 214.559 103.804 214.764L103.134 215.789C102.46 215.557 101.872 215.21 101.371 214.75C100.874 214.285 100.489 213.743 100.215 213.123C99.9464 213.816 99.5476 214.424 99.0189 214.948C98.4903 215.472 97.8659 215.867 97.1459 216.131L96.4623 215.092ZM98.4311 218.852C98.4311 218.368 98.5951 217.956 98.9232 217.614C99.2559 217.268 99.7322 217.004 100.352 216.821C100.976 216.634 101.717 216.541 102.574 216.541C103.426 216.541 104.162 216.634 104.782 216.821C105.401 217.004 105.878 217.268 106.21 217.614C106.548 217.956 106.716 218.368 106.716 218.852C106.716 219.335 106.548 219.747 106.21 220.089C105.878 220.435 105.401 220.7 104.782 220.882C104.162 221.069 103.426 221.162 102.574 221.162C101.717 221.162 100.976 221.069 100.352 220.882C99.7322 220.7 99.2559 220.435 98.9232 220.089C98.5951 219.747 98.4311 219.335 98.4311 218.852ZM99.7162 218.852C99.7117 219.266 99.96 219.588 100.461 219.815C100.967 220.039 101.671 220.146 102.574 220.137C103.467 220.146 104.164 220.039 104.665 219.815C105.171 219.588 105.426 219.266 105.431 218.852C105.426 218.441 105.176 218.122 104.679 217.895C104.187 217.667 103.499 217.553 102.615 217.553C101.694 217.553 100.979 217.664 100.468 217.888C99.9623 218.111 99.7117 218.432 99.7162 218.852ZM119.423 219.645H108.212V218.564H113.147V216.049H109.497V209.746H110.796V211.852H116.812V209.746H118.097V216.049H114.433V218.564H119.423V219.645ZM116.812 214.996V212.904H110.796V214.996H116.812ZM129.874 213.533H121.438V209.35H122.723V212.494H129.874V213.533ZM119.948 215.078H131.159V216.117H119.948V215.078ZM121.342 217.279H122.641V219.809H129.956V220.875H121.342V217.279ZM139.236 210.676C139.236 211.241 139.357 211.781 139.598 212.296C139.845 212.806 140.195 213.257 140.651 213.649C141.111 214.041 141.651 214.34 142.271 214.545L141.615 215.57C140.909 215.329 140.296 214.969 139.776 214.49C139.257 214.012 138.858 213.449 138.58 212.802C138.302 213.494 137.899 214.101 137.37 214.62C136.841 215.135 136.219 215.52 135.504 215.775L134.847 214.764C135.472 214.54 136.014 214.221 136.474 213.807C136.935 213.387 137.288 212.907 137.534 212.364C137.78 211.822 137.905 211.259 137.91 210.676V209.5H139.236V210.676ZM136.638 216.855H144.937V221.162H143.638V217.908H136.638V216.855ZM143.638 208.912H144.937V216.268H143.638V208.912ZM157.699 215.816H152.749V217.129H156.331V221.012H147.869V217.129H151.464V215.816H146.529V214.777H157.699V215.816ZM147.554 209.295H156.646V210.348H154.869V212.686H156.591V213.738H147.609V212.686H149.345V210.348H147.554V209.295ZM155.074 219.959V218.154H149.154V219.959H155.074ZM153.57 212.686V210.348H150.63V212.686H153.57ZM167.903 212.562H169.681V213.656H167.903V217.908H166.604V208.898H167.903V212.562ZM158.47 212.795C158.465 212.212 158.604 211.69 158.887 211.229C159.174 210.765 159.566 210.402 160.062 210.143C160.559 209.878 161.113 209.746 161.724 209.746C162.334 209.746 162.888 209.878 163.385 210.143C163.882 210.402 164.271 210.765 164.554 211.229C164.841 211.69 164.987 212.212 164.991 212.795C164.987 213.378 164.841 213.902 164.554 214.367C164.271 214.832 163.882 215.194 163.385 215.454C162.888 215.714 162.334 215.844 161.724 215.844C161.113 215.844 160.559 215.714 160.062 215.454C159.566 215.194 159.174 214.832 158.887 214.367C158.604 213.902 158.465 213.378 158.47 212.795ZM159.741 212.795C159.737 213.169 159.821 213.501 159.994 213.793C160.167 214.08 160.404 214.306 160.705 214.47C161.01 214.629 161.35 214.709 161.724 214.709C162.097 214.709 162.435 214.629 162.735 214.47C163.041 214.306 163.28 214.08 163.453 213.793C163.631 213.501 163.72 213.169 163.72 212.795C163.72 212.421 163.631 212.091 163.453 211.804C163.28 211.512 163.041 211.286 162.735 211.127C162.435 210.963 162.097 210.881 161.724 210.881C161.35 210.881 161.01 210.963 160.705 211.127C160.404 211.286 160.167 211.512 159.994 211.804C159.821 212.091 159.737 212.421 159.741 212.795ZM160.138 216.965H161.437V219.85H168.423V220.902H160.138V216.965ZM180.241 217.895H178.942V213.287H176.604V212.234H178.942V208.926H180.241V217.895ZM170.042 215.338C170.657 215.128 171.195 214.823 171.655 214.422C172.12 214.016 172.475 213.551 172.721 213.027C172.967 212.503 173.09 211.961 173.09 211.4V210.922H170.438V209.855H177.042V210.922H174.417V211.4C174.412 211.911 174.528 212.41 174.765 212.897C175.007 213.385 175.351 213.82 175.797 214.203C176.244 214.586 176.768 214.878 177.37 215.078L176.7 216.117C176.025 215.88 175.437 215.529 174.936 215.064C174.435 214.6 174.047 214.057 173.774 213.438C173.505 214.121 173.106 214.72 172.578 215.235C172.054 215.75 171.432 216.135 170.712 216.391L170.042 215.338ZM172.284 217.088H173.583V219.85H180.569V220.902H172.284V217.088ZM193.221 214.791H191.321V221.148H190.022V208.912H191.321V213.725H193.221V214.791ZM182.242 210.102H183.528V216.992C185.401 216.983 187.214 216.801 188.969 216.445L189.119 217.539C188.126 217.735 187.148 217.874 186.187 217.956C185.225 218.038 184.248 218.077 183.254 218.072H182.242V210.102ZM203.07 213.697H205.039V214.791H203.07V221.189H201.785V208.912H203.07V213.697ZM194.006 210.02H199.611V214.518H195.318V217.17C196.453 217.165 197.433 217.136 198.258 217.081C199.087 217.022 199.926 216.915 200.773 216.76L200.896 217.812C199.989 217.981 199.094 218.097 198.21 218.161C197.33 218.22 196.271 218.255 195.031 218.264H194.033V213.465H198.326V211.072H194.006V210.02ZM215.818 221.162H214.574V208.912H215.818V221.162ZM205.413 214.203C205.413 213.328 205.521 212.567 205.735 211.92C205.954 211.268 206.261 210.769 206.658 210.423C207.059 210.072 207.524 209.896 208.052 209.896C208.544 209.896 208.98 210.045 209.358 210.341C209.741 210.637 210.046 211.065 210.274 211.626C210.506 212.182 210.648 212.84 210.698 213.602H212.085V209.145H213.329V220.561H212.085V214.654H210.704C210.668 215.447 210.536 216.135 210.308 216.719C210.08 217.298 209.773 217.744 209.385 218.059C208.998 218.368 208.553 218.523 208.052 218.523C207.524 218.523 207.059 218.35 206.658 218.004C206.261 217.653 205.954 217.152 205.735 216.5C205.521 215.844 205.413 215.078 205.413 214.203ZM206.617 214.203C206.617 214.846 206.674 215.399 206.788 215.864C206.906 216.329 207.072 216.685 207.287 216.931C207.505 217.172 207.76 217.293 208.052 217.293C208.353 217.293 208.613 217.172 208.831 216.931C209.05 216.685 209.219 216.329 209.337 215.864C209.456 215.399 209.515 214.846 209.515 214.203C209.515 213.556 209.456 213.002 209.337 212.542C209.219 212.077 209.05 211.724 208.831 211.482C208.613 211.236 208.353 211.113 208.052 211.113C207.76 211.113 207.505 211.236 207.287 211.482C207.072 211.724 206.906 212.077 206.788 212.542C206.674 213.007 206.617 213.561 206.617 214.203ZM221.442 212.029C221.442 212.772 221.572 213.501 221.832 214.217C222.096 214.928 222.465 215.559 222.939 216.11C223.413 216.662 223.958 217.074 224.573 217.348L223.78 218.387C223.097 218.04 222.497 217.541 221.982 216.89C221.467 216.233 221.073 215.481 220.8 214.634C220.526 215.532 220.128 216.331 219.604 217.033C219.084 217.73 218.476 218.259 217.778 218.619L216.958 217.566C217.578 217.27 218.127 216.833 218.605 216.254C219.089 215.671 219.462 215.01 219.727 214.271C219.995 213.529 220.13 212.781 220.13 212.029V209.938H221.442V212.029ZM223.22 212.986H225.954V208.912H227.239V221.189H225.954V214.039H223.22V212.986ZM241.483 212.562H243.233V213.629H241.483V217.17H240.184V208.926H241.483V212.562ZM231.762 215.803C233.129 215.803 234.196 215.794 234.961 215.775V214.948C234.255 214.871 233.699 214.675 233.293 214.36C232.888 214.041 232.687 213.638 232.692 213.15C232.687 212.781 232.806 212.46 233.047 212.187C233.289 211.913 233.628 211.703 234.066 211.558C234.508 211.412 235.02 211.341 235.604 211.346C236.187 211.341 236.697 211.412 237.135 211.558C237.572 211.703 237.912 211.913 238.154 212.187C238.395 212.46 238.516 212.781 238.516 213.15C238.511 213.633 238.308 214.035 237.907 214.354C237.506 214.668 236.957 214.866 236.26 214.948V215.728C237.495 215.664 238.571 215.566 239.487 215.434L239.596 216.363C238.434 216.564 237.233 216.694 235.993 216.753C234.754 216.812 233.389 216.842 231.899 216.842L231.762 215.803ZM232.076 209.965H234.961V208.816H236.26V209.965H239.145V210.936H232.076V209.965ZM233.293 217.744H241.483V221.162H240.184V218.756H233.293V217.744ZM233.922 213.15C233.922 213.438 234.07 213.668 234.366 213.841C234.663 214.009 235.066 214.094 235.576 214.094C236.1 214.094 236.515 214.009 236.821 213.841C237.126 213.672 237.276 213.442 237.272 213.15C237.276 212.859 237.128 212.631 236.827 212.467C236.531 212.303 236.123 212.225 235.604 212.234C235.08 212.225 234.667 212.303 234.366 212.467C234.07 212.631 233.922 212.859 233.922 213.15ZM253.752 217.826H252.453V208.926H253.752V217.826ZM243.84 212.781C243.84 212.202 243.983 211.683 244.27 211.223C244.557 210.762 244.949 210.402 245.446 210.143C245.943 209.878 246.497 209.746 247.107 209.746C247.718 209.746 248.269 209.878 248.762 210.143C249.258 210.402 249.648 210.762 249.93 211.223C250.218 211.683 250.361 212.202 250.361 212.781C250.361 213.369 250.218 213.896 249.93 214.36C249.648 214.821 249.258 215.181 248.762 215.44C248.269 215.7 247.718 215.83 247.107 215.83C246.497 215.83 245.943 215.7 245.446 215.44C244.949 215.181 244.557 214.821 244.27 214.36C243.983 213.896 243.84 213.369 243.84 212.781ZM245.111 212.781C245.111 213.16 245.195 213.494 245.364 213.786C245.537 214.073 245.776 214.297 246.082 214.456C246.387 214.616 246.729 214.695 247.107 214.695C247.481 214.695 247.818 214.616 248.119 214.456C248.42 214.297 248.657 214.073 248.83 213.786C249.003 213.494 249.09 213.16 249.09 212.781C249.09 212.412 249.003 212.084 248.83 211.797C248.657 211.505 248.42 211.28 248.119 211.12C247.818 210.961 247.481 210.881 247.107 210.881C246.729 210.881 246.387 210.961 246.082 211.12C245.776 211.28 245.537 211.505 245.364 211.797C245.195 212.084 245.111 212.412 245.111 212.781ZM245.74 216.924H247.053V219.85H254.121V220.902H245.74V216.924ZM264.968 211.742H266.759V212.809H264.968V215.611H263.669V208.871H264.968V211.742ZM255.357 209.951H258.365V208.803H259.663V209.951H262.658V210.977H255.357V209.951ZM256.027 213.451C256.027 213.046 256.148 212.692 256.389 212.392C256.635 212.086 256.984 211.852 257.435 211.688C257.886 211.523 258.41 211.441 259.007 211.441C259.604 211.441 260.126 211.523 260.573 211.688C261.019 211.852 261.363 212.084 261.605 212.385C261.851 212.686 261.974 213.041 261.974 213.451C261.974 213.861 261.851 214.217 261.605 214.518C261.363 214.818 261.019 215.049 260.573 215.208C260.126 215.368 259.604 215.447 259.007 215.447C258.41 215.447 257.886 215.368 257.435 215.208C256.984 215.049 256.635 214.818 256.389 214.518C256.148 214.217 256.027 213.861 256.027 213.451ZM257.052 216.186H264.968V219.029H258.351V220.055H265.392V221.039H257.079V218.113H263.683V217.156H257.052V216.186ZM257.285 213.451C257.28 213.779 257.433 214.037 257.743 214.224C258.052 214.41 258.474 214.504 259.007 214.504C259.536 214.504 259.957 214.41 260.272 214.224C260.591 214.037 260.753 213.779 260.757 213.451C260.753 213.123 260.591 212.863 260.272 212.672C259.957 212.476 259.536 212.376 259.007 212.371C258.474 212.376 258.052 212.476 257.743 212.672C257.433 212.863 257.28 213.123 257.285 213.451ZM276.436 209.992C276.436 210.525 276.632 211.038 277.024 211.53C277.421 212.022 277.954 212.442 278.624 212.788C279.298 213.134 280.032 213.36 280.825 213.465L280.319 214.531C279.654 214.426 279.022 214.244 278.425 213.984C277.828 213.725 277.3 213.403 276.839 213.021C276.384 212.633 276.024 212.202 275.759 211.729C275.495 212.202 275.133 212.633 274.672 213.021C274.217 213.403 273.693 213.725 273.1 213.984C272.508 214.24 271.879 214.422 271.213 214.531L270.694 213.465C271.487 213.36 272.218 213.137 272.888 212.795C273.558 212.453 274.091 212.036 274.488 211.544C274.884 211.047 275.083 210.53 275.083 209.992V209.322H276.436V209.992ZM270.161 215.734H281.331V216.801H276.354V221.162H275.083V216.801H270.161V215.734ZM289.23 217.006C289.23 217.557 289.369 218.088 289.647 218.599C289.925 219.104 290.331 219.517 290.864 219.836C291.224 219.604 291.529 219.328 291.78 219.009C292.035 218.69 292.224 218.357 292.347 218.011C292.475 217.664 292.539 217.329 292.539 217.006V216.418H293.81V217.006C293.806 217.434 293.897 217.849 294.084 218.25C294.271 218.646 294.546 219 294.911 219.31C295.28 219.619 295.724 219.859 296.244 220.027L295.601 220.984C295.009 220.779 294.505 220.483 294.091 220.096C293.676 219.713 293.359 219.264 293.14 218.749C292.935 219.269 292.644 219.733 292.265 220.144C291.892 220.554 291.436 220.87 290.898 221.094C290.333 220.88 289.857 220.572 289.47 220.171C289.087 219.77 288.797 219.307 288.601 218.783C288.374 219.28 288.055 219.72 287.644 220.103C287.239 220.485 286.756 220.779 286.195 220.984L285.539 220.027C286.045 219.845 286.48 219.594 286.845 219.275C287.214 218.952 287.492 218.594 287.679 218.202C287.87 217.806 287.968 217.407 287.972 217.006V216.418H289.23V217.006ZM285.224 212.494C285.224 211.934 285.366 211.435 285.648 210.997C285.931 210.555 286.32 210.211 286.817 209.965C287.314 209.719 287.872 209.596 288.492 209.596C289.112 209.596 289.668 209.719 290.16 209.965C290.657 210.211 291.044 210.555 291.322 210.997C291.605 211.435 291.746 211.934 291.746 212.494C291.746 213.05 291.605 213.547 291.322 213.984C291.044 214.417 290.657 214.757 290.16 215.003C289.668 215.244 289.112 215.365 288.492 215.365C287.872 215.365 287.314 215.244 286.817 215.003C286.32 214.757 285.931 214.417 285.648 213.984C285.366 213.547 285.224 213.05 285.224 212.494ZM286.496 212.494C286.496 212.845 286.58 213.157 286.749 213.431C286.917 213.7 287.154 213.909 287.46 214.06C287.765 214.21 288.109 214.285 288.492 214.285C288.87 214.285 289.21 214.21 289.511 214.06C289.811 213.909 290.046 213.7 290.215 213.431C290.388 213.157 290.474 212.845 290.474 212.494C290.474 212.143 290.388 211.831 290.215 211.558C290.046 211.284 289.811 211.075 289.511 210.929C289.21 210.778 288.87 210.703 288.492 210.703C288.109 210.703 287.765 210.778 287.46 210.929C287.154 211.075 286.917 211.284 286.749 211.558C286.58 211.831 286.496 212.143 286.496 212.494ZM293.838 208.926H295.137V215.898H293.838V208.926ZM300.05 209.828C300.602 209.828 301.098 209.979 301.54 210.279C301.982 210.58 302.34 211.006 302.614 211.558C302.892 212.109 303.063 212.758 303.126 213.506H305.656V208.912H306.941V221.189H305.656V214.559H303.14C303.094 215.347 302.935 216.033 302.662 216.616C302.388 217.2 302.026 217.648 301.575 217.963C301.123 218.273 300.615 218.428 300.05 218.428C299.444 218.428 298.904 218.252 298.43 217.901C297.961 217.55 297.594 217.049 297.329 216.397C297.07 215.746 296.942 214.987 296.947 214.121C296.942 213.264 297.07 212.512 297.329 211.865C297.594 211.214 297.961 210.712 298.43 210.361C298.904 210.006 299.444 209.828 300.05 209.828ZM298.177 214.121C298.177 214.759 298.255 215.315 298.41 215.789C298.569 216.263 298.79 216.628 299.073 216.883C299.355 217.138 299.681 217.266 300.05 217.266C300.419 217.266 300.745 217.138 301.028 216.883C301.31 216.628 301.529 216.263 301.684 215.789C301.843 215.315 301.923 214.759 301.923 214.121C301.923 213.492 301.843 212.943 301.684 212.474C301.524 212 301.303 211.635 301.021 211.38C300.743 211.12 300.419 210.99 300.05 210.99C299.681 210.99 299.355 211.12 299.073 211.38C298.795 211.635 298.576 212 298.416 212.474C298.257 212.943 298.177 213.492 298.177 214.121ZM319.688 219.631H308.478V218.551H311.157V215.352C310.642 215.069 310.243 214.711 309.961 214.278C309.678 213.845 309.539 213.36 309.544 212.822C309.544 212.189 309.735 211.631 310.118 211.147C310.501 210.664 311.034 210.291 311.718 210.026C312.406 209.757 313.185 209.623 314.056 209.623C314.926 209.623 315.705 209.757 316.394 210.026C317.082 210.291 317.617 210.664 318 211.147C318.387 211.631 318.581 212.189 318.581 212.822C318.581 213.355 318.444 213.836 318.171 214.265C317.897 214.688 317.51 215.042 317.009 215.324V218.551H319.688V219.631ZM310.802 212.822C310.802 213.255 310.938 213.636 311.212 213.964C311.485 214.292 311.868 214.547 312.36 214.729C312.853 214.907 313.418 214.996 314.056 214.996C314.689 214.996 315.252 214.905 315.744 214.723C316.241 214.54 316.628 214.287 316.906 213.964C317.184 213.636 317.323 213.255 317.323 212.822C317.323 212.389 317.184 212.011 316.906 211.688C316.628 211.359 316.241 211.106 315.744 210.929C315.252 210.751 314.689 210.662 314.056 210.662C313.418 210.662 312.853 210.751 312.36 210.929C311.868 211.106 311.485 211.359 311.212 211.688C310.938 212.011 310.802 212.389 310.802 212.822ZM315.696 218.551V215.83C315.186 215.949 314.639 216.008 314.056 216.008C313.481 216.008 312.944 215.949 312.442 215.83V218.551H315.696Z" fill="white"/>
<path d="M274.603 28.277L262.307 55.6852C260.111 60.5795 262.732 66.5656 268.629 69.2114C274.526 71.8571 280.74 69.8343 282.936 64.94L295.232 37.5317C297.427 32.6393 294.805 26.6527 288.909 24.0074C283.011 21.3617 276.798 23.3845 274.603 28.277ZM292.806 36.4401L286.71 50.0296L270.934 42.9525L277.031 29.3629C278.65 25.7542 283.513 24.3856 287.863 26.3372C292.214 28.2889 294.426 32.8304 292.806 36.4401Z" fill="#B3E8B7"/>
<path d="M231.91 62.0164L245.873 88.6143C248.366 93.3639 254.693 94.9998 260.416 91.9954C266.139 88.991 268.385 82.8548 265.892 78.1052L251.929 51.5073C249.437 46.7595 243.109 45.1242 237.387 48.128C231.664 51.1324 229.418 57.2686 231.91 62.0164ZM249.573 52.7409L256.496 65.9287L241.187 73.9651L234.264 60.7773C232.426 57.2753 234.353 52.6051 238.574 50.3889C242.796 48.1727 247.734 49.2379 249.573 52.7409Z" fill="#B3E8B7"/>
<defs>
<linearGradient id="paint0_linear_1488_40376" x1="0" y1="150" x2="335" y2="150" gradientUnits="userSpaceOnUse">
<stop stop-color="#03B450"/>
<stop offset="1" stop-color="#03D65D"/>
</linearGradient>
</defs>
</svg>
