<svg width="335" height="300" viewBox="0 0 335 300" fill="none" xmlns="http://www.w3.org/2000/svg">
<rect width="335" height="300" rx="24" fill="url(#paint0_linear_1488_40391)"/>
<rect x="103.5" y="58" width="128" height="32" rx="16" stroke="white" stroke-width="2"/>
<path d="M151.53 69.5537C151.525 70.4229 151.503 71.1797 151.464 71.8242C151.425 72.4639 151.33 73.1963 151.179 74.0215H153.01V75.3398H147.751V80.8184H146.11V75.3398H140.939V74.0215H149.523C149.685 73.2207 149.787 72.4932 149.831 71.8389C149.88 71.1846 149.904 70.4668 149.904 69.6855H142.36V68.3672H151.53V69.5537ZM164.954 80.8037H163.387V74.0215H161.98V80.1592H160.442V67.7959H161.98V72.6738H163.387V67.5615H164.954V80.8037ZM153.938 68.9971H159.139V77.3906H153.938V68.9971ZM157.615 76.1016V70.2861H155.462V76.1016H157.615ZM175.439 75.7354C176.353 75.7354 177.141 75.8354 177.805 76.0356C178.469 76.2358 178.979 76.5239 179.336 76.8999C179.697 77.2759 179.878 77.7275 179.878 78.2549C179.878 78.7871 179.697 79.2437 179.336 79.6245C178.979 80.0054 178.469 80.2959 177.805 80.4961C177.141 80.7012 176.353 80.8037 175.439 80.8037C174.517 80.8037 173.718 80.7012 173.044 80.4961C172.375 80.2959 171.86 80.0054 171.499 79.6245C171.138 79.2437 170.957 78.7871 170.957 78.2549C170.957 77.7324 171.138 77.2832 171.499 76.9072C171.86 76.5264 172.378 76.2358 173.052 76.0356C173.726 75.8354 174.521 75.7354 175.439 75.7354ZM169.756 68.3965H171.367V70.1836H174.458V68.3965H176.069V74.5781H169.756V68.3965ZM174.458 73.2891V71.458H171.367V73.2891H174.458ZM172.583 78.2549C172.583 78.6602 172.827 78.9727 173.315 79.1924C173.804 79.4072 174.497 79.5146 175.396 79.5146C176.318 79.5146 177.026 79.4072 177.52 79.1924C178.018 78.9775 178.267 78.665 178.267 78.2549C178.267 77.8496 178.022 77.542 177.534 77.332C177.051 77.1221 176.353 77.0146 175.439 77.0098C174.521 77.0146 173.816 77.1221 173.323 77.332C172.83 77.542 172.583 77.8496 172.583 78.2549ZM178.12 67.5615H179.746V70.7256H181.592V72.0879H179.746V75.4131H178.12V67.5615ZM184.117 70.0518H187.076V68.25H188.688V70.667H191.354V67.5615H192.979V74.7979H191.354V72.0146H188.688V74.3877H182.491V68.25H184.117V70.0518ZM187.076 73.0693V71.3115H184.117V73.0693H187.076ZM184.249 75.3838H185.875V76.7314H191.354V75.3838H192.979V80.6133H184.249V75.3838ZM191.354 79.2949V77.9912H185.875V79.2949H191.354Z" fill="white"/>
<path d="M38.1322 110.729V120.859H27.0365V110.729H38.1322ZM28.4076 129.771C32.559 129.264 34.8188 127.613 35.3393 125.836H29.3979V123.271H44.9623V125.836H39.0463C39.5795 127.562 41.8773 129.276 45.9779 129.822L44.8354 132.285C41.1283 131.79 38.5131 130.317 37.1801 128.337C35.8598 130.317 33.2699 131.765 29.5756 132.234L28.4076 129.771ZM30.2357 118.295H34.933V113.293H30.2357V118.295ZM41.433 122.18V109.23H44.683V114.258H47.8061V116.898H44.683V122.18H41.433ZM69.2459 120.326V122.891H60.283V124.668H66.7322V132.082H50.6092V124.668H57.0838V122.891H48.1717V120.326H69.2459ZM49.0604 117.076C54.075 116.784 56.3856 115.337 56.8045 113.75H50.2029V111.211H57.0838V109.23H60.283V111.211H67.2147V113.75H60.5496C60.9686 115.337 63.3299 116.784 68.3065 117.076L67.367 119.463C63.0887 119.171 60.1307 118.003 58.6834 116.188C57.2234 118.003 54.2654 119.171 49.9998 119.463L49.0604 117.076ZM53.8084 129.492H63.5584V127.232H53.8084V129.492ZM82.8908 111.363V113.928H70.0432V111.363H75.0197V109.027H78.2443V111.363H82.8908ZM71.1857 119.031C71.1604 116.467 73.4074 114.702 76.594 114.689C79.7678 114.702 82.0529 116.467 82.0783 119.031C82.0529 121.621 79.7678 123.335 76.594 123.322C73.4074 123.335 71.1604 121.621 71.1857 119.031ZM73.6486 128.299C73.6359 125.734 76.6828 124.224 81.6213 124.236C86.5344 124.224 89.5813 125.734 89.594 128.299C89.5813 130.812 86.5344 132.349 81.6213 132.336C76.6828 132.349 73.6359 130.812 73.6486 128.299ZM74.2072 119.031C74.1945 120.275 75.134 120.936 76.594 120.936C78.0412 120.936 79.0568 120.275 79.0568 119.031C79.0568 117.8 78.0412 117.114 76.594 117.102C75.134 117.114 74.1945 117.8 74.2072 119.031ZM77.051 128.299C77.051 129.353 78.6633 129.898 81.6213 129.898C84.5158 129.898 86.1154 129.353 86.1154 128.299C86.1154 127.194 84.5158 126.699 81.6213 126.674C78.6633 126.699 77.051 127.194 77.051 128.299ZM83.094 121.52V118.93H86.2424V116.898H83.1447V114.309H86.2424V109.23H89.467V123.957H86.2424V121.52H83.094ZM111.288 109.256V126.141H108.063V118.6H103.924V115.934H108.063V109.256H111.288ZM92.1178 121.266C96.9039 119.768 100.002 117 100.598 113.598H93.3111V110.957H104.128C104.128 117.152 100.192 121.735 93.4381 123.83L92.1178 121.266ZM96.0533 131.93V124.439H99.3541V129.34H111.872V131.93H96.0533ZM131.966 109.23V114.664H135.089V117.305H131.966V122.637H128.716V109.23H131.966ZM113.481 120.529C118.572 119.184 121.479 116.543 121.987 113.344H114.573V110.754H125.517C125.529 116.911 121.657 121.228 114.776 123.145L113.481 120.529ZM116.604 127.639C116.579 124.744 119.728 122.916 124.425 122.916C129.135 122.916 132.207 124.744 132.22 127.639C132.207 130.559 129.135 132.361 124.425 132.361C119.728 132.361 116.579 130.559 116.604 127.639ZM119.804 127.639C119.791 129.035 121.518 129.835 124.425 129.822C127.294 129.835 129.021 129.035 129.021 127.639C129.021 126.217 127.294 125.43 124.425 125.43C121.518 125.43 119.791 126.217 119.804 127.639ZM154.878 109.23V132.336H151.603V109.23H154.878ZM135.531 125.785C141.497 122.967 144.125 119.311 144.646 114.182H136.775V111.643H147.947C147.934 118.65 145.484 124.478 137.232 128.375L135.531 125.785ZM176.013 115.02V117.609H159.941V109.586H163.166V115.02H176.013ZM157.275 122.23V119.59H178.4V122.23H157.275ZM159.687 127.969C159.687 125.239 162.734 123.69 167.787 123.678C172.802 123.69 175.81 125.239 175.836 127.969C175.81 130.724 172.802 132.26 167.787 132.26C162.734 132.26 159.687 130.724 159.687 127.969ZM162.988 127.969C162.975 129.175 164.588 129.784 167.787 129.797C170.923 129.784 172.573 129.175 172.586 127.969C172.573 126.737 170.923 126.217 167.787 126.191C164.588 126.217 162.975 126.737 162.988 127.969ZM187.957 112.506C187.932 115.388 189.582 118.193 193.391 119.336L191.766 121.875C189.138 121.037 187.31 119.387 186.281 117.279C185.24 119.552 183.362 121.354 180.645 122.23L179.02 119.691C182.879 118.46 184.58 115.451 184.58 112.506V110.297H187.957V112.506ZM182.549 126.598V124.008H198.444V132.336H195.194V126.598H182.549ZM195.194 123.018V109.23H198.444V123.018H195.194ZM221.991 120.047V122.611H213.053V124.592H219.477V132.082H203.354V124.592H209.829V122.611H200.917V120.047H221.991ZM202.77 112.455V109.865H220.112V112.455H217.09V115.984H219.96V118.574H202.922V115.984H205.766V112.455H202.77ZM206.553 129.492H216.303V127.105H206.553V129.492ZM209.016 115.984H213.84V112.455H209.016V115.984ZM235.687 111.16V113.75H233.808V120.161C234.734 120.085 235.636 119.996 236.499 119.895L236.728 122.281C232.106 123.068 226.825 123.145 222.966 123.145L222.61 120.555C223.397 120.555 224.248 120.542 225.124 120.529V113.75H223.22V111.16H235.687ZM226.089 131.93V124.643H229.313V129.34H241.907V131.93H226.089ZM228.247 120.453C229.047 120.428 229.872 120.402 230.685 120.364V113.75H228.247V120.453ZM237.819 126.268V109.256H241.069V115.756H244.192V118.447H241.069V126.268H237.819ZM264.591 109.23V132.336H261.494V120.682H259.412V131.27H256.339V109.561H259.412V118.041H261.494V109.23H264.591ZM245.218 126.521V111.617H254.41V126.521H245.218ZM248.24 123.982H251.388V114.182H248.24V123.982ZM272.828 110.221C275.773 110.195 278.122 111.884 278.757 114.359H282.629V109.23H285.853V121.646H282.629V116.949H278.769C278.173 119.488 275.799 121.215 272.828 121.215C269.273 121.215 266.658 118.904 266.683 115.68C266.658 112.519 269.273 110.195 272.828 110.221ZM269.756 115.68C269.743 117.406 271.013 118.498 272.828 118.498C274.58 118.498 275.837 117.406 275.849 115.68C275.837 113.953 274.58 112.899 272.828 112.912C271.013 112.899 269.743 113.953 269.756 115.68ZM270.441 132.082V122.662H273.64V124.896H282.629V122.662H285.853V132.082H270.441ZM273.64 129.467H282.629V127.385H273.64V129.467ZM309.35 126.979V129.568H288.199V126.979H297.035V121.748H300.26V126.979H309.35ZM288.707 119.793C293.938 118.98 296.883 115.464 296.908 112.201V110.551H300.362V112.201C300.349 115.502 303.332 118.98 308.613 119.793L307.242 122.484C303.18 121.748 300.158 119.577 298.635 116.695C297.124 119.564 294.115 121.761 290.078 122.484L288.707 119.793ZM129.295 148.277V150.893H126.299V153.254H129.295V155.945H126.299V158.865H123.049V145.23H126.299V148.277H129.295ZM108.119 152.111C108.106 148.849 110.848 146.487 114.467 146.5C118.047 146.487 120.763 148.849 120.763 152.111C120.763 155.45 118.047 157.786 114.467 157.773C110.848 157.786 108.106 155.45 108.119 152.111ZM110.734 162.395V159.779H126.299V168.336H123.049V162.395H110.734ZM111.318 152.111C111.293 153.978 112.651 155.044 114.467 155.031C116.244 155.044 117.602 153.978 117.615 152.111C117.602 150.309 116.244 149.255 114.467 149.268C112.651 149.255 111.293 150.309 111.318 152.111ZM148.424 146.246V148.049C148.437 149.75 148.437 151.705 147.954 154.193H150.938V156.783H141.949V160.109H148.449V168.336H145.199V162.648H131.92V160.109H138.699V156.783H129.787V154.193H144.679C145.111 152.022 145.174 150.334 145.199 148.811H132.377V146.246H148.424Z" fill="#FFFF68"/>
<path d="M78.6354 155.158V157.723H70.2564V147.16H78.4576V149.75H73.5064V155.158H78.6354ZM58.983 165.645V163.029H67.8697V158.738H71.0689V163.029H80.1334V165.645H58.983ZM60.608 157.723V147.16H68.8092V149.75H63.858V155.095C65.6734 155.044 67.235 154.904 68.9615 154.574L69.19 157.215C66.8414 157.697 64.8355 157.735 62.0807 157.723H60.608ZM99.5674 151.527V154.066H83.4189V146.043H86.6436V151.527H99.5674ZM80.7783 159.094V156.555H101.929V159.094H80.7783ZM83.2158 167.828V160.973H86.4658V165.238H99.7197V167.828H83.2158ZM171.641 145.23V168.336H168.544V145.23H171.641ZM151.811 155.234C151.811 150.067 153.779 146.868 156.838 146.881C159.619 146.868 161.523 149.471 161.879 153.787H163.77V145.561H166.817V167.27H163.77V156.352H161.904C161.625 160.884 159.682 163.639 156.838 163.639C153.779 163.639 151.811 160.427 151.811 155.234ZM154.807 155.234C154.782 158.789 155.544 160.541 156.838 160.516C158.171 160.541 158.959 158.789 158.946 155.234C158.959 151.692 158.171 149.928 156.838 149.928C155.544 149.928 154.782 151.692 154.807 155.234ZM182.163 150.461C182.176 154.803 183.928 159.03 187.774 160.693L185.794 163.283C183.229 162.039 181.503 159.729 180.538 156.872C179.548 159.906 177.771 162.395 175.13 163.689L173.099 161.049C177.06 159.259 178.862 154.803 178.888 150.461V147.008H182.163V150.461ZM185.185 155.107V152.492H189.729V145.23H192.929V168.387H189.729V155.107H185.185ZM209.021 148.861C209.009 151.667 210.646 154.358 214.303 155.488L212.576 158.002C210.126 157.189 208.412 155.615 207.422 153.597C206.419 155.92 204.629 157.748 201.988 158.637L200.236 156.098C204.096 154.815 205.746 151.743 205.771 148.557V146.449H209.021V148.861ZM203.435 163.867C203.423 161.062 206.482 159.398 211.357 159.398C216.143 159.398 219.139 161.062 219.152 163.867C219.139 166.698 216.143 168.349 211.357 168.336C206.482 168.349 203.423 166.698 203.435 163.867ZM206.685 163.867C206.66 165.175 208.323 165.797 211.357 165.797C214.353 165.797 215.953 165.175 215.953 163.867C215.953 162.61 214.353 161.938 211.357 161.938C208.323 161.938 206.66 162.61 206.685 163.867ZM215.674 158.941V145.23H218.924V150.639H222.047V153.33H218.924V158.941H215.674ZM240.744 145.23V150.436H243.867V153.102H240.744V158.205H237.494V145.23H240.744ZM223.301 157.342V146.678H233.61V149.242H226.551V154.752C230.74 154.727 233.038 154.562 235.615 154.041L235.945 156.58C233.038 157.253 230.372 157.342 225.256 157.342H223.301ZM225.637 168.057V159.17H240.744V168.057H225.637ZM228.836 165.518H237.545V161.734H228.836V165.518ZM269.558 147.617V150.232H250.591V147.617H258.487V145.205H261.712V147.617H269.558ZM249.575 162.801V160.16H270.726V162.801H261.712V168.361H258.487V162.801H249.575ZM252.14 155.082C252.127 152.518 255.11 151.121 260.112 151.121C265.076 151.121 268.072 152.518 268.085 155.082C268.072 157.634 265.076 159.03 260.112 159.043C255.11 159.03 252.127 157.634 252.14 155.082ZM255.491 155.082C255.491 156.136 257.015 156.631 260.112 156.631C263.172 156.631 264.708 156.136 264.708 155.082C264.708 154.028 263.172 153.521 260.112 153.508C257.015 153.521 255.491 154.028 255.491 155.082ZM136.498 182.576V184.658C136.485 186.816 136.485 189.165 135.901 192.402H138.961V195.018H129.947V204.361H126.697V195.018H117.887V192.402H132.613C133.21 189.432 133.261 187.159 133.273 185.166H120.299V182.576H136.498ZM159.741 181.23V204.336H156.643V192.682H154.561V203.27H151.489V181.561H154.561V190.041H156.643V181.23H159.741ZM140.368 198.521V183.617H149.559V198.521H140.368ZM143.389 195.982H146.537V186.182H143.389V195.982ZM185.101 181.23V190.092H188.376V192.758H185.101V204.285H181.851V181.23H185.101ZM166.616 197.811C172.088 195.068 175.033 191.387 175.643 186.232H167.937V183.592H178.931C178.905 190.498 176.214 196.478 168.445 200.299L166.616 197.811ZM207.429 187.02V189.609H191.357V181.586H194.582V187.02H207.429ZM188.691 194.23V191.59H209.816V194.23H188.691ZM191.103 199.969C191.103 197.239 194.15 195.69 199.203 195.678C204.217 195.69 207.226 197.239 207.252 199.969C207.226 202.724 204.217 204.26 199.203 204.26C194.15 204.26 191.103 202.724 191.103 199.969ZM194.404 199.969C194.391 201.175 196.004 201.784 199.203 201.797C202.338 201.784 203.989 201.175 204.002 199.969C203.989 198.737 202.338 198.217 199.203 198.191C196.004 198.217 194.391 198.737 194.404 199.969ZM215.768 183.617L215.438 196.49H212.188L211.857 183.617H215.768ZM211.705 200.096C211.68 198.928 212.645 197.976 213.838 197.988C214.968 197.976 215.945 198.928 215.945 200.096C215.945 201.276 214.968 202.229 213.838 202.229C212.645 202.229 211.68 201.276 211.705 200.096Z" fill="white"/>
<path d="M34.2375 227.623C34.7434 227.623 35.2082 227.712 35.632 227.89C36.0604 228.063 36.4204 228.311 36.7121 228.635H39.7746V226.912H41.0734V234.145H39.7746V232.49H36.7053C36.4136 232.809 36.0536 233.055 35.6252 233.229C35.2014 233.402 34.7388 233.488 34.2375 233.488C33.6314 233.488 33.0845 233.363 32.5969 233.112C32.1092 232.862 31.7264 232.515 31.4484 232.073C31.175 231.627 31.0383 231.123 31.0383 230.562C31.0383 229.997 31.175 229.492 31.4484 229.045C31.7264 228.598 32.1092 228.25 32.5969 227.999C33.0845 227.748 33.6314 227.623 34.2375 227.623ZM32.2824 230.562C32.2824 230.913 32.3645 231.228 32.5285 231.506C32.6971 231.784 32.9318 232 33.2326 232.155C33.5334 232.31 33.8729 232.385 34.2512 232.381C34.6203 232.385 34.9507 232.31 35.2424 232.155C35.5386 232 35.771 231.784 35.9397 231.506C36.1083 231.228 36.1926 230.913 36.1926 230.562C36.1926 230.202 36.1083 229.883 35.9397 229.605C35.771 229.327 35.5386 229.113 35.2424 228.963C34.9507 228.812 34.6203 228.74 34.2512 228.744C33.8729 228.74 33.5334 228.812 33.2326 228.963C32.9318 229.113 32.6971 229.327 32.5285 229.605C32.3645 229.883 32.2824 230.202 32.2824 230.562ZM32.8293 236.783C32.8293 236.291 32.9956 235.867 33.3283 235.512C33.661 235.152 34.1372 234.881 34.757 234.698C35.3814 234.511 36.1197 234.418 36.9719 234.418C37.8195 234.418 38.5533 234.511 39.173 234.698C39.7974 234.881 40.2759 235.152 40.6086 235.512C40.9458 235.867 41.1145 236.291 41.1145 236.783C41.1145 237.275 40.9458 237.697 40.6086 238.048C40.2759 238.403 39.7974 238.672 39.173 238.854C38.5533 239.041 37.8195 239.135 36.9719 239.135C36.1197 239.135 35.3814 239.041 34.757 238.854C34.1372 238.672 33.661 238.403 33.3283 238.048C32.9956 237.697 32.8293 237.275 32.8293 236.783ZM34.1008 236.783C34.1008 237.061 34.2124 237.3 34.4357 237.501C34.6636 237.697 34.9895 237.847 35.4133 237.952C35.8417 238.057 36.3498 238.109 36.9377 238.109C37.8537 238.109 38.5669 237.995 39.0773 237.768C39.5878 237.535 39.843 237.207 39.843 236.783C39.843 236.35 39.59 236.015 39.0842 235.778C38.5829 235.541 37.8788 235.421 36.9719 235.416C36.065 235.421 35.3586 235.541 34.8527 235.778C34.3469 236.015 34.0962 236.35 34.1008 236.783ZM37.3068 229.674C37.3934 229.961 37.4367 230.257 37.4367 230.562C37.4367 230.854 37.3934 231.141 37.3068 231.424H39.7746V229.674H37.3068ZM46.0008 227.473C46.534 227.468 47.0216 227.562 47.4637 227.753C47.9057 227.944 48.2726 228.215 48.5643 228.566C48.8559 228.913 49.0451 229.314 49.1316 229.77H51.5242V226.912H52.823V233.488H51.5242V230.836H49.1385C49.0564 231.301 48.8696 231.711 48.5779 232.066C48.2863 232.422 47.9171 232.698 47.4705 232.894C47.0285 233.09 46.5385 233.188 46.0008 233.188C45.381 233.188 44.8273 233.067 44.3397 232.825C43.852 232.579 43.4715 232.24 43.198 231.807C42.9246 231.369 42.7879 230.872 42.7879 230.316C42.7879 229.77 42.9246 229.28 43.198 228.847C43.4715 228.409 43.852 228.07 44.3397 227.828C44.8318 227.587 45.3855 227.468 46.0008 227.473ZM44.032 230.316C44.032 230.658 44.1141 230.966 44.2781 231.239C44.4467 231.508 44.6792 231.718 44.9754 231.868C45.2762 232.019 45.618 232.094 46.0008 232.094C46.3745 232.094 46.7072 232.019 46.9988 231.868C47.2951 231.718 47.5252 231.508 47.6893 231.239C47.8579 230.97 47.9422 230.663 47.9422 230.316C47.9422 229.97 47.8579 229.662 47.6893 229.394C47.5252 229.125 47.2951 228.917 46.9988 228.771C46.7072 228.626 46.3745 228.553 46.0008 228.553C45.618 228.553 45.2762 228.626 44.9754 228.771C44.6792 228.917 44.4467 229.125 44.2781 229.394C44.1141 229.662 44.032 229.97 44.032 230.316ZM44.8387 234.076H46.1238V235.498H51.5242V234.076H52.823V239.012H44.8387V234.076ZM51.5242 237.945V236.523H46.1238V237.945H51.5242ZM64.518 235.895H63.2191V226.926H64.518V235.895ZM54.4281 233.133C55.057 232.9 55.6016 232.563 56.0619 232.121C56.5222 231.679 56.8731 231.171 57.1147 230.597C57.3607 230.022 57.4861 229.428 57.4906 228.812V227.596H58.8168V228.812C58.8168 229.41 58.9376 229.979 59.1791 230.521C59.4206 231.064 59.7693 231.542 60.225 231.957C60.6807 232.372 61.2185 232.686 61.8383 232.9L61.1684 233.939C60.4665 233.68 59.8581 233.301 59.3432 232.805C58.8327 232.303 58.4385 231.718 58.1605 231.048C57.8871 231.768 57.4883 232.399 56.9643 232.941C56.4447 233.479 55.8318 233.885 55.1254 234.158L54.4281 233.133ZM56.5063 235.047H57.8188V237.85H64.8871V238.902H56.5063V235.047ZM76.0215 229.291C76.0169 229.997 76.0055 230.601 75.9873 231.103C75.9736 231.599 75.9326 232.18 75.8643 232.846C75.8005 233.511 75.6979 234.231 75.5566 235.006L74.2441 234.869C74.39 234.135 74.4971 233.445 74.5654 232.798C74.6338 232.146 74.6748 231.572 74.6885 231.075C74.7067 230.578 74.7181 229.984 74.7227 229.291V229.141H67.2852V228.088H76.0215V229.291ZM66.1094 236.428H70.3613V232.107H71.6465V236.428H77.2793V237.508H66.1094V236.428ZM91.1398 236.264H89.841V233.734H87.8723V232.695H89.841V231.178H87.8723V230.111H89.841V226.926H91.1398V236.264ZM80.9406 228.348H83.8117V226.912H85.0969V228.348H87.8313V229.4H80.9406V228.348ZM81.6242 232.34C81.6242 231.88 81.7427 231.472 81.9797 231.116C82.2212 230.756 82.5539 230.478 82.9777 230.282C83.4061 230.086 83.8938 229.988 84.4406 229.988C84.9829 229.988 85.4683 230.086 85.8967 230.282C86.3251 230.478 86.66 230.756 86.9016 231.116C87.1477 231.472 87.2707 231.88 87.2707 232.34C87.2707 232.805 87.1477 233.217 86.9016 233.577C86.66 233.933 86.3251 234.211 85.8967 234.411C85.4683 234.607 84.9829 234.705 84.4406 234.705C83.8938 234.705 83.4061 234.607 82.9777 234.411C82.5539 234.211 82.2212 233.933 81.9797 233.577C81.7427 233.217 81.6242 232.805 81.6242 232.34ZM82.841 232.34C82.841 232.613 82.9071 232.853 83.0393 233.058C83.1714 233.263 83.3583 233.42 83.5998 233.529C83.8459 233.639 84.1262 233.693 84.4406 233.693C84.7505 233.693 85.0262 233.639 85.2678 233.529C85.5139 233.42 85.7053 233.263 85.842 233.058C85.9787 232.853 86.0494 232.613 86.0539 232.34C86.0494 232.076 85.9787 231.843 85.842 231.643C85.7053 231.442 85.5139 231.287 85.2678 231.178C85.0262 231.064 84.7505 231.005 84.4406 231C84.1262 231.005 83.8459 231.064 83.5998 231.178C83.3583 231.287 83.1714 231.442 83.0393 231.643C82.9071 231.843 82.841 232.076 82.841 232.34ZM83.1418 235.443H84.4543V237.85H91.4133V238.902H83.1418V235.443ZM102.315 230.535H104.065V231.615H102.315V235.211H101.016V226.926H102.315V230.535ZM93.5174 233.714C94.1554 233.714 94.9142 233.702 95.7938 233.68V232.784C95.0828 232.711 94.5245 232.524 94.1189 232.224C93.7179 231.923 93.5197 231.538 93.5242 231.068C93.5197 230.708 93.6359 230.398 93.8729 230.139C94.1098 229.874 94.4471 229.674 94.8846 229.537C95.3266 229.4 95.8439 229.332 96.4363 229.332C97.0242 229.332 97.5369 229.4 97.9744 229.537C98.4119 229.674 98.7492 229.874 98.9861 230.139C99.2277 230.398 99.3484 230.708 99.3484 231.068C99.3439 231.533 99.1411 231.916 98.74 232.217C98.339 232.518 97.7898 232.707 97.0926 232.784V233.625C98.3139 233.566 99.3895 233.47 100.319 233.338L100.429 234.24C99.2619 234.441 98.0451 234.573 96.7781 234.637C95.5158 234.701 94.1668 234.732 92.7313 234.732L92.5945 233.707L93.5174 233.714ZM92.909 227.91H95.7938V226.816H97.0926V227.91H99.9773V228.881H92.909V227.91ZM94.2215 237.262C94.2215 236.852 94.381 236.503 94.7 236.216C95.019 235.929 95.4839 235.712 96.0945 235.566C96.7052 235.421 97.4435 235.348 98.3094 235.348C99.1662 235.348 99.8999 235.421 100.511 235.566C101.121 235.712 101.586 235.929 101.905 236.216C102.229 236.503 102.393 236.852 102.397 237.262C102.393 237.872 102.035 238.34 101.324 238.663C100.613 238.991 99.6082 239.158 98.3094 239.162C97.0014 239.158 95.992 238.991 95.2811 238.663C94.5747 238.34 94.2215 237.872 94.2215 237.262ZM94.7547 231.068C94.7547 231.342 94.9028 231.556 95.199 231.711C95.4998 231.866 95.9122 231.943 96.4363 231.943C96.9559 231.943 97.3637 231.866 97.66 231.711C97.9607 231.556 98.1089 231.342 98.1043 231.068C98.1089 230.804 97.9607 230.594 97.66 230.439C97.3592 230.285 96.9513 230.207 96.4363 230.207C95.9122 230.207 95.4998 230.285 95.199 230.439C94.9028 230.59 94.7547 230.799 94.7547 231.068ZM95.534 237.262C95.5249 237.558 95.7527 237.788 96.2176 237.952C96.687 238.112 97.366 238.191 98.2547 238.191C99.1753 238.191 99.8748 238.112 100.353 237.952C100.832 237.793 101.071 237.562 101.071 237.262C101.071 236.952 100.839 236.715 100.374 236.551C99.9135 236.387 99.2436 236.305 98.3641 236.305C97.4298 236.305 96.7234 236.387 96.2449 236.551C95.7664 236.71 95.5294 236.947 95.534 237.262ZM115.596 234.35H104.426V233.311H115.596V234.35ZM105.629 229.77C105.629 229.264 105.807 228.826 106.163 228.457C106.518 228.088 107.026 227.808 107.687 227.616C108.348 227.42 109.12 227.322 110.004 227.322C110.884 227.322 111.652 227.42 112.308 227.616C112.969 227.808 113.479 228.088 113.839 228.457C114.199 228.826 114.379 229.264 114.379 229.77C114.379 230.28 114.199 230.722 113.839 231.096C113.479 231.469 112.969 231.757 112.308 231.957C111.652 232.158 110.884 232.258 110.004 232.258C109.12 232.258 108.348 232.158 107.687 231.957C107.026 231.757 106.518 231.469 106.163 231.096C105.807 230.722 105.629 230.28 105.629 229.77ZM105.834 235.348H107.147V237.85H114.338V238.902H105.834V235.348ZM106.969 229.77C106.969 230.07 107.09 230.328 107.331 230.542C107.573 230.752 107.922 230.913 108.377 231.027C108.838 231.137 109.38 231.191 110.004 231.191C110.629 231.191 111.169 231.137 111.624 231.027C112.08 230.913 112.429 230.752 112.67 230.542C112.916 230.328 113.039 230.07 113.039 229.77C113.039 229.482 112.916 229.234 112.67 229.024C112.429 228.81 112.078 228.646 111.618 228.532C111.162 228.418 110.624 228.361 110.004 228.361C109.38 228.361 108.84 228.418 108.384 228.532C107.928 228.646 107.578 228.81 107.331 229.024C107.09 229.234 106.969 229.482 106.969 229.77ZM123.701 228.676C123.701 229.241 123.822 229.781 124.063 230.296C124.309 230.806 124.66 231.257 125.116 231.649C125.576 232.041 126.116 232.34 126.736 232.545L126.08 233.57C125.373 233.329 124.76 232.969 124.241 232.49C123.721 232.012 123.323 231.449 123.045 230.802C122.767 231.494 122.363 232.101 121.835 232.62C121.306 233.135 120.684 233.52 119.968 233.775L119.312 232.764C119.936 232.54 120.479 232.221 120.939 231.807C121.399 231.387 121.753 230.907 121.999 230.364C122.245 229.822 122.37 229.259 122.375 228.676V227.5H123.701V228.676ZM121.103 234.855H129.402V239.162H128.103V235.908H121.103V234.855ZM128.103 226.912H129.402V234.268H128.103V226.912ZM142.163 233.816H137.214V235.129H140.796V239.012H132.333V235.129H135.929V233.816H130.993V232.777H142.163V233.816ZM132.019 227.295H141.111V228.348H139.333V230.686H141.056V231.738H132.073V230.686H133.81V228.348H132.019V227.295ZM139.538 237.959V236.154H133.618V237.959H139.538ZM138.034 230.686V228.348H135.095V230.686H138.034ZM152.368 230.562H154.145V231.656H152.368V235.908H151.069V226.898H152.368V230.562ZM142.934 230.795C142.93 230.212 143.069 229.69 143.351 229.229C143.638 228.765 144.03 228.402 144.527 228.143C145.024 227.878 145.578 227.746 146.188 227.746C146.799 227.746 147.353 227.878 147.849 228.143C148.346 228.402 148.736 228.765 149.018 229.229C149.305 229.69 149.451 230.212 149.456 230.795C149.451 231.378 149.305 231.902 149.018 232.367C148.736 232.832 148.346 233.194 147.849 233.454C147.353 233.714 146.799 233.844 146.188 233.844C145.578 233.844 145.024 233.714 144.527 233.454C144.03 233.194 143.638 232.832 143.351 232.367C143.069 231.902 142.93 231.378 142.934 230.795ZM144.206 230.795C144.201 231.169 144.286 231.501 144.459 231.793C144.632 232.08 144.869 232.306 145.17 232.47C145.475 232.629 145.815 232.709 146.188 232.709C146.562 232.709 146.899 232.629 147.2 232.47C147.505 232.306 147.745 232.08 147.918 231.793C148.096 231.501 148.184 231.169 148.184 230.795C148.184 230.421 148.096 230.091 147.918 229.804C147.745 229.512 147.505 229.286 147.2 229.127C146.899 228.963 146.562 228.881 146.188 228.881C145.815 228.881 145.475 228.963 145.17 229.127C144.869 229.286 144.632 229.512 144.459 229.804C144.286 230.091 144.201 230.421 144.206 230.795ZM144.602 234.965H145.901V237.85H152.888V238.902H144.602V234.965ZM164.705 235.895H163.407V231.287H161.069V230.234H163.407V226.926H164.705V235.895ZM154.506 233.338C155.121 233.128 155.659 232.823 156.12 232.422C156.584 232.016 156.94 231.551 157.186 231.027C157.432 230.503 157.555 229.961 157.555 229.4V228.922H154.903V227.855H161.506V228.922H158.881V229.4C158.877 229.911 158.993 230.41 159.23 230.897C159.471 231.385 159.816 231.82 160.262 232.203C160.709 232.586 161.233 232.878 161.834 233.078L161.164 234.117C160.49 233.88 159.902 233.529 159.401 233.064C158.899 232.6 158.512 232.057 158.239 231.438C157.97 232.121 157.571 232.72 157.042 233.235C156.518 233.75 155.896 234.135 155.176 234.391L154.506 233.338ZM156.748 235.088H158.047V237.85H165.034V238.902H156.748V235.088ZM177.686 232.791H175.785V239.148H174.486V226.912H175.785V231.725H177.686V232.791ZM166.707 228.102H167.992V234.992C169.865 234.983 171.679 234.801 173.434 234.445L173.584 235.539C172.59 235.735 171.613 235.874 170.651 235.956C169.69 236.038 168.712 236.077 167.719 236.072H166.707V228.102ZM187.535 231.697H189.504V232.791H187.535V239.189H186.25V226.912H187.535V231.697ZM178.47 228.02H184.076V232.518H179.783V235.17C180.918 235.165 181.897 235.136 182.722 235.081C183.552 235.022 184.39 234.915 185.238 234.76L185.361 235.812C184.454 235.981 183.559 236.097 182.674 236.161C181.795 236.22 180.735 236.255 179.496 236.264H178.498V231.465H182.791V229.072H178.47V228.02ZM200.282 239.162H199.038V226.912H200.282V239.162ZM189.878 232.203C189.878 231.328 189.985 230.567 190.199 229.92C190.418 229.268 190.726 228.769 191.122 228.423C191.523 228.072 191.988 227.896 192.517 227.896C193.009 227.896 193.444 228.045 193.822 228.341C194.205 228.637 194.511 229.065 194.738 229.626C194.971 230.182 195.112 230.84 195.162 231.602H196.55V227.145H197.794V238.561H196.55V232.654H195.169C195.133 233.447 195.001 234.135 194.773 234.719C194.545 235.298 194.237 235.744 193.85 236.059C193.462 236.368 193.018 236.523 192.517 236.523C191.988 236.523 191.523 236.35 191.122 236.004C190.726 235.653 190.418 235.152 190.199 234.5C189.985 233.844 189.878 233.078 189.878 232.203ZM191.081 232.203C191.081 232.846 191.138 233.399 191.252 233.864C191.371 234.329 191.537 234.685 191.751 234.931C191.97 235.172 192.225 235.293 192.517 235.293C192.818 235.293 193.077 235.172 193.296 234.931C193.515 234.685 193.683 234.329 193.802 233.864C193.92 233.399 193.98 232.846 193.98 232.203C193.98 231.556 193.92 231.002 193.802 230.542C193.683 230.077 193.515 229.724 193.296 229.482C193.077 229.236 192.818 229.113 192.517 229.113C192.225 229.113 191.97 229.236 191.751 229.482C191.537 229.724 191.371 230.077 191.252 230.542C191.138 231.007 191.081 231.561 191.081 232.203ZM205.907 230.029C205.907 230.772 206.037 231.501 206.297 232.217C206.561 232.928 206.93 233.559 207.404 234.11C207.878 234.662 208.423 235.074 209.038 235.348L208.245 236.387C207.561 236.04 206.962 235.541 206.447 234.89C205.932 234.233 205.538 233.481 205.264 232.634C204.991 233.532 204.592 234.331 204.068 235.033C203.549 235.73 202.94 236.259 202.243 236.619L201.423 235.566C202.042 235.27 202.592 234.833 203.07 234.254C203.553 233.671 203.927 233.01 204.191 232.271C204.46 231.529 204.595 230.781 204.595 230.029V227.938H205.907V230.029ZM207.684 230.986H210.419V226.912H211.704V239.189H210.419V232.039H207.684V230.986ZM225.947 230.562H227.697V231.629H225.947V235.17H224.648V226.926H225.947V230.562ZM216.227 233.803C217.594 233.803 218.66 233.794 219.426 233.775V232.948C218.719 232.871 218.163 232.675 217.758 232.36C217.352 232.041 217.152 231.638 217.156 231.15C217.152 230.781 217.27 230.46 217.512 230.187C217.753 229.913 218.093 229.703 218.53 229.558C218.972 229.412 219.485 229.341 220.068 229.346C220.652 229.341 221.162 229.412 221.6 229.558C222.037 229.703 222.377 229.913 222.618 230.187C222.86 230.46 222.98 230.781 222.98 231.15C222.976 231.633 222.773 232.035 222.372 232.354C221.971 232.668 221.422 232.866 220.725 232.948V233.728C221.96 233.664 223.035 233.566 223.951 233.434L224.061 234.363C222.898 234.564 221.698 234.694 220.458 234.753C219.218 234.812 217.854 234.842 216.363 234.842L216.227 233.803ZM216.541 227.965H219.426V226.816H220.725V227.965H223.609V228.936H216.541V227.965ZM217.758 235.744H225.947V239.162H224.648V236.756H217.758V235.744ZM218.387 231.15C218.387 231.438 218.535 231.668 218.831 231.841C219.127 232.009 219.531 232.094 220.041 232.094C220.565 232.094 220.98 232.009 221.285 231.841C221.59 231.672 221.741 231.442 221.736 231.15C221.741 230.859 221.593 230.631 221.292 230.467C220.996 230.303 220.588 230.225 220.068 230.234C219.544 230.225 219.132 230.303 218.831 230.467C218.535 230.631 218.387 230.859 218.387 231.15ZM238.216 235.826H236.918V226.926H238.216V235.826ZM228.304 230.781C228.304 230.202 228.448 229.683 228.735 229.223C229.022 228.762 229.414 228.402 229.911 228.143C230.407 227.878 230.961 227.746 231.572 227.746C232.183 227.746 232.734 227.878 233.226 228.143C233.723 228.402 234.113 228.762 234.395 229.223C234.682 229.683 234.826 230.202 234.826 230.781C234.826 231.369 234.682 231.896 234.395 232.36C234.113 232.821 233.723 233.181 233.226 233.44C232.734 233.7 232.183 233.83 231.572 233.83C230.961 233.83 230.407 233.7 229.911 233.44C229.414 233.181 229.022 232.821 228.735 232.36C228.448 231.896 228.304 231.369 228.304 230.781ZM229.576 230.781C229.576 231.16 229.66 231.494 229.829 231.786C230.002 232.073 230.241 232.297 230.546 232.456C230.852 232.616 231.194 232.695 231.572 232.695C231.946 232.695 232.283 232.616 232.584 232.456C232.884 232.297 233.121 232.073 233.295 231.786C233.468 231.494 233.554 231.16 233.554 230.781C233.554 230.412 233.468 230.084 233.295 229.797C233.121 229.505 232.884 229.28 232.584 229.12C232.283 228.961 231.946 228.881 231.572 228.881C231.194 228.881 230.852 228.961 230.546 229.12C230.241 229.28 230.002 229.505 229.829 229.797C229.66 230.084 229.576 230.412 229.576 230.781ZM230.205 234.924H231.517V237.85H238.586V238.902H230.205V234.924ZM249.433 229.742H251.224V230.809H249.433V233.611H248.134V226.871H249.433V229.742ZM239.821 227.951H242.829V226.803H244.128V227.951H247.122V228.977H239.821V227.951ZM240.491 231.451C240.491 231.046 240.612 230.692 240.854 230.392C241.1 230.086 241.448 229.852 241.9 229.688C242.351 229.523 242.875 229.441 243.472 229.441C244.069 229.441 244.591 229.523 245.037 229.688C245.484 229.852 245.828 230.084 246.07 230.385C246.316 230.686 246.439 231.041 246.439 231.451C246.439 231.861 246.316 232.217 246.07 232.518C245.828 232.818 245.484 233.049 245.037 233.208C244.591 233.368 244.069 233.447 243.472 233.447C242.875 233.447 242.351 233.368 241.9 233.208C241.448 233.049 241.1 232.818 240.854 232.518C240.612 232.217 240.491 231.861 240.491 231.451ZM241.517 234.186H249.433V237.029H242.816V238.055H249.857V239.039H241.544V236.113H248.148V235.156H241.517V234.186ZM241.749 231.451C241.745 231.779 241.897 232.037 242.207 232.224C242.517 232.41 242.939 232.504 243.472 232.504C244.001 232.504 244.422 232.41 244.737 232.224C245.056 232.037 245.217 231.779 245.222 231.451C245.217 231.123 245.056 230.863 244.737 230.672C244.422 230.476 244.001 230.376 243.472 230.371C242.939 230.376 242.517 230.476 242.207 230.672C241.897 230.863 241.745 231.123 241.749 231.451ZM260.901 227.992C260.901 228.525 261.097 229.038 261.489 229.53C261.885 230.022 262.418 230.442 263.088 230.788C263.763 231.134 264.496 231.36 265.289 231.465L264.784 232.531C264.118 232.426 263.487 232.244 262.89 231.984C262.293 231.725 261.764 231.403 261.304 231.021C260.848 230.633 260.488 230.202 260.224 229.729C259.96 230.202 259.597 230.633 259.137 231.021C258.681 231.403 258.157 231.725 257.565 231.984C256.972 232.24 256.343 232.422 255.678 232.531L255.159 231.465C255.952 231.36 256.683 231.137 257.353 230.795C258.023 230.453 258.556 230.036 258.953 229.544C259.349 229.047 259.547 228.53 259.547 227.992V227.322H260.901V227.992ZM254.625 233.734H265.795V234.801H260.819V239.162H259.547V234.801H254.625V233.734ZM273.695 235.006C273.695 235.557 273.834 236.088 274.112 236.599C274.39 237.104 274.796 237.517 275.329 237.836C275.689 237.604 275.994 237.328 276.245 237.009C276.5 236.69 276.689 236.357 276.812 236.011C276.94 235.664 277.004 235.329 277.004 235.006V234.418H278.275V235.006C278.27 235.434 278.362 235.849 278.548 236.25C278.735 236.646 279.011 237 279.376 237.31C279.745 237.619 280.189 237.859 280.709 238.027L280.066 238.984C279.474 238.779 278.97 238.483 278.555 238.096C278.141 237.713 277.824 237.264 277.605 236.749C277.4 237.269 277.108 237.733 276.73 238.144C276.356 238.554 275.901 238.87 275.363 239.094C274.798 238.88 274.322 238.572 273.934 238.171C273.551 237.77 273.262 237.307 273.066 236.783C272.838 237.28 272.519 237.72 272.109 238.103C271.703 238.485 271.22 238.779 270.66 238.984L270.004 238.027C270.509 237.845 270.945 237.594 271.309 237.275C271.678 236.952 271.956 236.594 272.143 236.202C272.335 235.806 272.433 235.407 272.437 235.006V234.418H273.695V235.006ZM269.689 230.494C269.689 229.934 269.83 229.435 270.113 228.997C270.395 228.555 270.785 228.211 271.282 227.965C271.779 227.719 272.337 227.596 272.957 227.596C273.576 227.596 274.132 227.719 274.625 227.965C275.121 228.211 275.509 228.555 275.787 228.997C276.069 229.435 276.211 229.934 276.211 230.494C276.211 231.05 276.069 231.547 275.787 231.984C275.509 232.417 275.121 232.757 274.625 233.003C274.132 233.244 273.576 233.365 272.957 233.365C272.337 233.365 271.779 233.244 271.282 233.003C270.785 232.757 270.395 232.417 270.113 231.984C269.83 231.547 269.689 231.05 269.689 230.494ZM270.961 230.494C270.961 230.845 271.045 231.157 271.213 231.431C271.382 231.7 271.619 231.909 271.924 232.06C272.23 232.21 272.574 232.285 272.957 232.285C273.335 232.285 273.674 232.21 273.975 232.06C274.276 231.909 274.511 231.7 274.679 231.431C274.852 231.157 274.939 230.845 274.939 230.494C274.939 230.143 274.852 229.831 274.679 229.558C274.511 229.284 274.276 229.075 273.975 228.929C273.674 228.778 273.335 228.703 272.957 228.703C272.574 228.703 272.23 228.778 271.924 228.929C271.619 229.075 271.382 229.284 271.213 229.558C271.045 229.831 270.961 230.143 270.961 230.494ZM278.302 226.926H279.601V233.898H278.302V226.926ZM284.515 227.828C285.066 227.828 285.563 227.979 286.005 228.279C286.447 228.58 286.805 229.006 287.078 229.558C287.356 230.109 287.527 230.758 287.591 231.506H290.12V226.912H291.405V239.189H290.12V232.559H287.605C287.559 233.347 287.4 234.033 287.126 234.616C286.853 235.2 286.49 235.648 286.039 235.963C285.588 236.273 285.08 236.428 284.515 236.428C283.909 236.428 283.369 236.252 282.895 235.901C282.425 235.55 282.058 235.049 281.794 234.397C281.534 233.746 281.407 232.987 281.411 232.121C281.407 231.264 281.534 230.512 281.794 229.865C282.058 229.214 282.425 228.712 282.895 228.361C283.369 228.006 283.909 227.828 284.515 227.828ZM282.642 232.121C282.642 232.759 282.719 233.315 282.874 233.789C283.034 234.263 283.255 234.628 283.537 234.883C283.82 235.138 284.146 235.266 284.515 235.266C284.884 235.266 285.21 235.138 285.492 234.883C285.775 234.628 285.994 234.263 286.149 233.789C286.308 233.315 286.388 232.759 286.388 232.121C286.388 231.492 286.308 230.943 286.149 230.474C285.989 230 285.768 229.635 285.486 229.38C285.208 229.12 284.884 228.99 284.515 228.99C284.146 228.99 283.82 229.12 283.537 229.38C283.259 229.635 283.041 230 282.881 230.474C282.722 230.943 282.642 231.492 282.642 232.121ZM304.153 237.631H292.942V236.551H295.622V233.352C295.107 233.069 294.708 232.711 294.426 232.278C294.143 231.845 294.004 231.36 294.009 230.822C294.009 230.189 294.2 229.631 294.583 229.147C294.966 228.664 295.499 228.291 296.182 228.026C296.871 227.757 297.65 227.623 298.52 227.623C299.391 227.623 300.17 227.757 300.858 228.026C301.546 228.291 302.082 228.664 302.465 229.147C302.852 229.631 303.046 230.189 303.046 230.822C303.046 231.355 302.909 231.836 302.636 232.265C302.362 232.688 301.975 233.042 301.473 233.324V236.551H304.153V237.631ZM295.266 230.822C295.266 231.255 295.403 231.636 295.677 231.964C295.95 232.292 296.333 232.547 296.825 232.729C297.317 232.907 297.882 232.996 298.52 232.996C299.154 232.996 299.717 232.905 300.209 232.723C300.706 232.54 301.093 232.287 301.371 231.964C301.649 231.636 301.788 231.255 301.788 230.822C301.788 230.389 301.649 230.011 301.371 229.688C301.093 229.359 300.706 229.106 300.209 228.929C299.717 228.751 299.154 228.662 298.52 228.662C297.882 228.662 297.317 228.751 296.825 228.929C296.333 229.106 295.95 229.359 295.677 229.688C295.403 230.011 295.266 230.389 295.266 230.822ZM300.161 236.551V233.83C299.651 233.949 299.104 234.008 298.52 234.008C297.946 234.008 297.408 233.949 296.907 233.83V236.551H300.161Z" fill="white"/>
<defs>
<linearGradient id="paint0_linear_1488_40391" x1="0" y1="150" x2="335" y2="150" gradientUnits="userSpaceOnUse">
<stop stop-color="#03B450"/>
<stop offset="1" stop-color="#03D65D"/>
</linearGradient>
</defs>
</svg>
