<svg width="24" height="24" viewBox="0 0 24 24" fill="none" xmlns="http://www.w3.org/2000/svg">
<g clip-path="url(#clip0_1289_39154)">
<rect width="24" height="24" fill="#00BFA5"/>
<rect opacity="0.6" x="3" y="3" width="18" height="18" rx="2" stroke="#A5A5A5" stroke-width="0.04"/>
<rect opacity="0.6" x="2" y="2" width="20" height="20" rx="10" stroke="#A5A5A5" stroke-width="0.04"/>
<rect opacity="0.6" x="7" y="7" width="10" height="10" rx="5" stroke="#A5A5A5" stroke-width="0.04"/>
<rect opacity="0.6" x="2" y="4" width="20" height="16" rx="2" stroke="#A5A5A5" stroke-width="0.04"/>
<rect opacity="0.6" x="4" y="22" width="20" height="16" rx="2" transform="rotate(-90 4 22)" stroke="#A5A5A5" stroke-width="0.04"/>
<path opacity="0.6" d="M24 0L0 24" stroke="#A5A5A5" stroke-width="0.04"/>
<path opacity="0.6" d="M0 0L24 24" stroke="#A5A5A5" stroke-width="0.04"/>
<rect x="18.0723" y="3" width="8.76623" height="16.0714" rx="4.38312" transform="rotate(90 18.0723 3)" fill="white"/>
<path d="M6.38897 12.2344C3.96824 12.2344 2.00586 14.1968 2.00586 16.6175C2.00586 19.0382 3.96825 21.0006 6.38898 21.0006L14.0448 21.0006L14.0448 12.2344L6.38897 12.2344Z" fill="white"/>
<circle cx="3.5" cy="3.5" r="3.5" transform="matrix(-1 0 0 1 22 13)" fill="#E0F7F4"/>
</g>
<defs>
<clipPath id="clip0_1289_39154">
<rect width="24" height="24" fill="white"/>
</clipPath>
</defs>
</svg>
