<svg width="36" height="43" viewBox="0 0 36 43" fill="none" xmlns="http://www.w3.org/2000/svg">
<g filter="url(#filter0_d_1289_39866)">
<mask id="path-1-outside-1_1289_39866" maskUnits="userSpaceOnUse" x="0" y="-0.142578" width="36" height="41" fill="black">
<rect fill="white" y="-0.142578" width="36" height="41"/>
<path d="M18 0.857422C27.3888 0.857422 35 8.46858 35 17.8574C35 26.136 29.0821 33.0306 21.2461 34.5459L18.46 39.373C18.2555 39.7271 17.7445 39.7271 17.54 39.373L14.7529 34.5459C6.91741 33.0303 1 26.1357 1 17.8574C1 8.46858 8.61116 0.857422 18 0.857422Z"/>
</mask>
<path d="M18 0.857422C27.3888 0.857422 35 8.46858 35 17.8574C35 26.136 29.0821 33.0306 21.2461 34.5459L18.46 39.373C18.2555 39.7271 17.7445 39.7271 17.54 39.373L14.7529 34.5459C6.91741 33.0303 1 26.1357 1 17.8574C1 8.46858 8.61116 0.857422 18 0.857422Z" fill="white"/>
<path d="M21.2461 34.5459L21.1856 34.2329L21.0427 34.2606L20.97 34.3866L21.2461 34.5459ZM18.46 39.373L18.736 39.5324L18.736 39.5324L18.46 39.373ZM17.54 39.373L17.264 39.5324L17.264 39.5324L17.54 39.373ZM14.7529 34.5459L15.029 34.3865L14.9563 34.2606L14.8135 34.2329L14.7529 34.5459ZM18 0.857422V1.17617C27.2128 1.17617 34.6813 8.64462 34.6813 17.8574H35H35.3187C35.3187 8.29254 27.5649 0.538672 18 0.538672V0.857422ZM35 17.8574H34.6813C34.6813 25.9804 28.8745 32.7461 21.1856 34.2329L21.2461 34.5459L21.3066 34.8589C29.2896 33.3152 35.3187 26.2917 35.3187 17.8574H35ZM21.2461 34.5459L20.97 34.3866L18.1839 39.2137L18.46 39.373L18.736 39.5324L21.5222 34.7052L21.2461 34.5459ZM18.46 39.373L18.1839 39.2136C18.1021 39.3553 17.8979 39.3553 17.8161 39.2136L17.54 39.373L17.264 39.5324C17.5912 40.099 18.4088 40.099 18.736 39.5324L18.46 39.373ZM17.54 39.373L17.8161 39.2137L15.029 34.3865L14.7529 34.5459L14.4769 34.7053L17.264 39.5324L17.54 39.373ZM14.7529 34.5459L14.8135 34.2329C7.12498 32.7458 1.31875 25.9801 1.31875 17.8574H1H0.68125C0.68125 26.2913 6.70984 33.3148 14.6924 34.8588L14.7529 34.5459ZM1 17.8574H1.31875C1.31875 8.64462 8.7872 1.17617 18 1.17617V0.857422V0.538672C8.43512 0.538672 0.68125 8.29254 0.68125 17.8574H1Z" fill="#E5E5EC" mask="url(#path-1-outside-1_1289_39866)"/>
<circle cx="18" cy="17.998" r="15" fill="#1DD1A1"/>
</g>
<path d="M18.2755 10.7171L11.2734 19.0886C10.023 20.5835 10.3491 22.9351 12.1505 24.4417C13.9518 25.9484 16.3239 25.8537 17.5743 24.3588L24.5764 15.9873C25.8263 14.493 25.4999 12.1411 23.6989 10.6348C21.8976 9.12809 19.5254 9.22276 18.2755 10.7171ZM23.8359 15.3664L20.3641 19.5172L15.5457 15.487L19.0175 11.3363C19.9395 10.234 21.775 10.235 23.1037 11.3464C24.4325 12.4577 24.7581 14.2639 23.8359 15.3664Z" fill="white"/>
<defs>
<filter id="filter0_d_1289_39866" x="0.181641" y="0.539062" width="35.6367" height="41.918" filterUnits="userSpaceOnUse" color-interpolation-filters="sRGB">
<feFlood flood-opacity="0" result="BackgroundImageFix"/>
<feColorMatrix in="SourceAlpha" type="matrix" values="0 0 0 0 0 0 0 0 0 0 0 0 0 0 0 0 0 0 127 0" result="hardAlpha"/>
<feOffset dy="2"/>
<feGaussianBlur stdDeviation="0.25"/>
<feComposite in2="hardAlpha" operator="out"/>
<feColorMatrix type="matrix" values="0 0 0 0 0 0 0 0 0 0 0 0 0 0 0 0 0 0 0.15 0"/>
<feBlend mode="normal" in2="BackgroundImageFix" result="effect1_dropShadow_1289_39866"/>
<feBlend mode="normal" in="SourceGraphic" in2="effect1_dropShadow_1289_39866" result="shape"/>
</filter>
</defs>
</svg>
