<svg width="16" height="16" viewBox="0 0 16 16" fill="none" xmlns="http://www.w3.org/2000/svg">
<g clip-path="url(#clip0_1289_40061)">
<path d="M7.99935 0.666016C12.0494 0.666016 15.3327 3.94926 15.3327 7.99935C15.3327 12.0494 12.0494 15.3327 7.99935 15.3327C3.94926 15.3327 0.666016 12.0494 0.666016 7.99935C0.666016 3.94926 3.94926 0.666016 7.99935 0.666016ZM7.99935 1.66602C4.50155 1.66602 1.66602 4.50155 1.66602 7.99935C1.66602 11.4972 4.50155 14.3327 7.99935 14.3327C11.4972 14.3327 14.3327 11.4972 14.3327 7.99935C14.3327 4.50155 11.4972 1.66602 7.99935 1.66602ZM8.19935 4.66602C8.27299 4.66602 8.33268 4.72571 8.33268 4.79935V7.72321C8.33268 7.75857 8.34392 7.79277 8.36442 7.82104L8.3815 7.84106L11.092 10.5515C11.144 10.6036 11.144 10.688 11.092 10.7401L10.5734 11.2586C10.5213 11.3107 10.4369 11.3107 10.3848 11.2586L7.67439 8.54816C7.47243 8.3462 7.35216 8.07782 7.33485 7.79436L7.33268 7.72321V4.79935C7.33268 4.72571 7.39238 4.66602 7.46602 4.66602H8.19935Z" fill="#A5A5AF"/>
</g>
<defs>
<clipPath id="clip0_1289_40061">
<rect width="16" height="16" fill="white"/>
</clipPath>
</defs>
</svg>
