<svg width="20" height="21" viewBox="0 0 20 21" fill="none" xmlns="http://www.w3.org/2000/svg">
<path d="M4.42025 3.88338L10.0737 9.59253L15.7268 3.88338C15.7581 3.85177 15.8008 3.83398 15.8453 3.83398H17.1267C17.2188 3.83398 17.2934 3.9086 17.2934 4.00065C17.2934 4.04457 17.276 4.08671 17.2451 4.11792L10.9489 10.4764L17.2926 16.8834C17.3574 16.9488 17.3569 17.0543 17.2915 17.1191C17.2602 17.15 17.2181 17.1673 17.1742 17.1673H15.8931C15.8486 17.1673 15.806 17.1495 15.7747 17.1179L10.0737 11.3603L4.37239 17.1179C4.34109 17.1495 4.29845 17.1673 4.25396 17.1673H2.97331C2.88126 17.1673 2.80664 17.0927 2.80664 17.0007C2.80664 16.9567 2.82397 16.9146 2.85487 16.8834L9.19852 10.4764L2.90235 4.11792C2.83758 4.05251 2.8381 3.94699 2.90351 3.88222C2.93472 3.85132 2.97686 3.83398 3.02078 3.83398H4.30182C4.34631 3.83398 4.38895 3.85177 4.42025 3.88338Z" fill="#484858"/>
</svg>
