<svg width="24" height="24" viewBox="0 0 24 24" fill="none" xmlns="http://www.w3.org/2000/svg">
<path d="M19.5779 3.42238L19.5774 3.42239C20.8075 4.65267 20.8075 6.64726 19.5774 7.87753L7.10879 20.3467C7.01027 20.445 6.87675 20.5 6.73759 20.5H3.55008C2.97014 20.5 2.5 20.0298 2.5 19.4499V16.2628C2.49975 16.1234 2.5549 15.9897 2.65331 15.891L15.1235 3.42239C16.3536 2.19254 18.3477 2.19254 19.5779 3.42238ZM20.7882 19C20.9294 19 21 19.0667 21 19.2V20.3C21 20.4333 20.9294 20.5 20.7882 20.5H12.2118C12.0706 20.5 12 20.4333 12 20.3V19.2C12 19.0667 12.0706 19 12.2118 19H20.7882ZM14.086 6.6855L4.13654 16.6361C4.09717 16.6755 4.07512 16.729 4.07512 16.7847V18.7159C4.07512 18.8319 4.1691 18.9259 4.28513 18.9259H6.21517C6.27096 18.9259 6.32442 18.9035 6.36375 18.8639L16.314 8.9135L14.086 6.6855ZM20.7778 15.5C20.9259 15.5 21 15.5667 21 15.7V16.8C21 16.9333 20.9259 17 20.7778 17H16.2222C16.0741 17 16 16.9333 16 16.8V15.7C16 15.5667 16.0741 15.5 16.2222 15.5H20.7778ZM16.3038 4.47252L16.2361 4.53552L15.1855 5.586L17.4135 7.814L18.4638 6.76442C19.0537 6.17465 19.0816 5.2272 18.5273 4.60379L18.4643 4.53658L18.4643 4.53552C17.8744 3.94572 16.927 3.9181 16.3038 4.47252Z" fill="black"/>
</svg>
