<svg width="16" height="16" viewBox="0 0 16 16" fill="none" xmlns="http://www.w3.org/2000/svg">
<path d="M8 1.16602C11.3137 1.16602 14 3.85896 14 7.18088C14 8.6658 13.4632 10.025 12.5736 11.0743L12.4083 11.2653C11.7403 12.0239 10.5769 13.2004 8.91831 14.795C8.42144 15.2726 7.65166 15.2891 7.13598 14.8444L7.08172 14.7949L6.38225 14.1187C4.95856 12.7338 3.97348 11.7193 3.427 11.075C2.53701 10.0257 2 8.66614 2 7.18088C2 3.85896 4.68629 1.16602 8 1.16602ZM8 2.16602C5.23645 2.16602 3 4.41253 3 7.17889C3 8.38368 3.42413 9.52049 4.18578 10.4203L4.28881 10.5403C4.66092 10.9682 5.21817 11.5547 5.95775 12.2963L6.18509 12.5234C6.5731 12.9096 7.00661 13.3346 7.48529 13.7977L7.77046 14.0731C7.89911 14.197 8.10095 14.197 8.2296 14.0731L8.77285 13.5475C10.2572 12.1049 11.2748 11.0577 11.8147 10.4197C12.5761 9.51997 13 8.38341 13 7.17889C13 4.41253 10.7635 2.16602 8 2.16602ZM8 4.66602C9.47276 4.66602 10.6667 5.85992 10.6667 7.33268C10.6667 8.80544 9.47276 9.99935 8 9.99935C6.52724 9.99935 5.33333 8.80544 5.33333 7.33268C5.33333 5.85992 6.52724 4.66602 8 4.66602ZM8 5.66602C7.07953 5.66602 6.33333 6.41221 6.33333 7.33268C6.33333 8.25316 7.07953 8.99935 8 8.99935C8.92047 8.99935 9.66667 8.25316 9.66667 7.33268C9.66667 6.41221 8.92047 5.66602 8 5.66602Z" fill="#A5A5AF"/>
</svg>
