<svg width="22" height="20" viewBox="0 0 22 20" fill="none" xmlns="http://www.w3.org/2000/svg">
<path d="M2.30152 2.36541C4.5984 -0.0129341 8.25991 -0.117036 10.6763 2.0531L10.8329 2.19925L10.858 2.22404C10.937 2.30229 11.0615 2.30254 11.1408 2.2246L11.204 2.16347C13.6177 -0.119875 17.3633 -0.0525628 19.6985 2.36541C22.1005 4.85261 22.1005 8.88517 19.6985 11.3724L12.4497 18.8782C11.6491 19.7073 10.3509 19.7073 9.55025 18.8782L2.30152 11.3724C-0.100505 8.88517 -0.100505 4.85261 2.30152 2.36541ZM3.38883 3.49128C1.61948 5.32337 1.58788 8.27346 3.29404 10.1455L3.38883 10.2465L10.6376 17.7523C10.8234 17.9448 11.1165 17.9585 11.3177 17.7936L11.3624 17.7523L18.6112 10.2465C20.4127 8.38111 20.4127 5.35668 18.6112 3.49128C16.8418 1.65918 13.9928 1.62647 12.1849 3.39313L12.0873 3.49128L11.1567 4.45494C11.0773 4.53712 10.9489 4.53795 10.8685 4.45679L9.82823 3.40598C8.01841 1.62319 5.15937 1.65795 3.38883 3.49128Z" fill="#2A2A37"/>
</svg>
