<svg width="24" height="24" viewBox="0 0 24 24" fill="none" xmlns="http://www.w3.org/2000/svg">
<path d="M22.1828 11.8353L12.5289 2.18846C12.4594 2.11881 12.3768 2.06356 12.2859 2.02586C12.1951 1.98816 12.0976 1.96875 11.9992 1.96875C11.9008 1.96875 11.8034 1.98816 11.7125 2.02586C11.6216 2.06356 11.539 2.11881 11.4695 2.18846L1.81562 11.8353C1.53437 12.1166 1.375 12.4986 1.375 12.8971C1.375 13.7244 2.04766 14.3971 2.875 14.3971H3.89219V21.2806C3.89219 21.6955 4.22734 22.0306 4.64219 22.0306H10.4992V16.7806H13.1242V22.0306H19.3563C19.7711 22.0306 20.1063 21.6955 20.1063 21.2806V14.3971H21.1234C21.5219 14.3971 21.9039 14.24 22.1852 13.9564C22.7687 13.3705 22.7687 12.4213 22.1828 11.8353Z" fill="#999999"/>
</svg>
