<svg width="24" height="24" viewBox="0 0 24 24" fill="none" xmlns="http://www.w3.org/2000/svg">
<path d="M12 2C16.6944 2 20.5 5.81235 20.5 10.5152C20.5 12.6171 19.7397 14.5413 18.4789 16.0265L18.3325 16.1975C17.3607 17.3142 15.5747 19.1175 12.9742 21.6074C12.4545 22.1058 11.647 22.1328 11.0957 21.6703L11.0258 21.6074L10.2169 20.8294C7.92426 18.6151 6.35884 17.0146 5.52159 16.0275L5.52159 16.0275C4.21523 14.4932 3.49794 12.5374 3.5 10.5152C3.5 5.81235 7.30564 2 12 2H12ZM12 7.25328C10.1744 7.25328 8.69445 8.75041 8.69445 10.5961C8.69445 12.4428 10.1744 13.9394 12 13.9394C13.8256 13.9394 15.3055 12.4427 15.3055 10.5966C15.3055 8.7504 13.8256 7.25375 12 7.25375V7.25328Z" fill="#2A2A37"/>
</svg>
