<svg width="71" height="70" viewBox="0 0 71 70" fill="none" xmlns="http://www.w3.org/2000/svg">
<path fill-rule="evenodd" clip-rule="evenodd" d="M43.6385 24.3279C42.8331 24.3279 42.1802 23.675 42.1802 22.8696V14.3633C42.1802 13.0493 43.7814 12.4055 44.691 13.3537L52.8505 21.8601C53.7398 22.7872 53.0827 24.3279 51.798 24.3279H43.6385ZM23.989 48.2767C23.989 49.0821 24.6419 49.735 25.4473 49.735H42.784C43.5894 49.735 44.2423 49.0821 44.2423 48.2767V46.8183C44.2423 46.0129 43.5894 45.36 42.784 45.36H25.4473C24.6419 45.36 23.989 46.0129 23.989 46.8183V48.2767ZM23.986 37.2429C23.986 38.0483 24.639 38.7013 25.4444 38.7013H36.7698C37.5752 38.7013 38.2281 38.0483 38.2281 37.2429V35.7846C38.2281 34.9792 37.5752 34.3263 36.7698 34.3263H25.4444C24.639 34.3263 23.986 34.9792 23.986 35.7846V37.2429ZM44.0399 7.0114C43.7649 6.72463 43.3847 6.5625 42.9874 6.5625H13.1302C12.3248 6.5625 11.6719 7.21542 11.6719 8.02083V61.9792C11.6719 62.7846 12.3248 63.4375 13.1302 63.4375H57.8719C58.6773 63.4375 59.3302 62.7846 59.3302 61.9792V23.5405C59.3302 23.1642 59.1848 22.8026 58.9244 22.531L44.0399 7.0114Z" fill="#A5A5AF"/>
</svg>
