<svg width="24" height="24" viewBox="0 0 24 24" fill="none" xmlns="http://www.w3.org/2000/svg">
<path d="M15.6716 1.5C16.202 1.5 16.7107 1.71071 17.0858 2.08579L20.9142 5.91421C21.2893 6.28929 21.5 6.79799 21.5 7.32843V19.5C21.5 21.1569 20.1569 22.5 18.5 22.5H5.5C3.84315 22.5 2.5 21.1569 2.5 19.5V4.5C2.5 2.84315 3.84315 1.5 5.5 1.5H15.6716ZM15 3H5.5C4.70116 3 4.04817 3.62446 4.00255 4.41186L4 4.5V19.5C4 20.2988 4.62446 20.9518 5.41186 20.9975L5.5 21H18.5C19.2988 21 19.9518 20.3755 19.9975 19.5881L20 19.5V8.5H16.5C15.6716 8.5 15 7.82843 15 7V3ZM18.5 12.7V13.8C18.5 13.9105 18.4105 14 18.3 14H5.7C5.58954 14 5.5 13.9105 5.5 13.8V12.7C5.5 12.5895 5.58954 12.5 5.7 12.5H18.3C18.4105 12.5 18.5 12.5895 18.5 12.7ZM12 9.7V10.8C12 10.9105 11.9105 11 11.8 11H5.7C5.58954 11 5.5 10.9105 5.5 10.8V9.7C5.5 9.58954 5.58954 9.5 5.7 9.5H11.8C11.9105 9.5 12 9.58954 12 9.7ZM16.5 4.10388V6.7985C16.5 6.90895 16.5895 6.9985 16.7 6.9985C16.7005 6.9985 16.701 6.99849 16.7015 6.99849L19.3758 6.97845C19.4863 6.97763 19.5751 6.88741 19.5743 6.77696C19.5739 6.72444 19.5529 6.67418 19.5158 6.63704L16.8414 3.96246C16.7633 3.88435 16.6367 3.88435 16.5586 3.96245C16.5211 3.99995 16.5 4.05083 16.5 4.10388Z" fill="black"/>
</svg>
